G04*
G04 #@! TF.GenerationSoftware,Altium Limited,Altium Designer,18.1.9 (240)*
G04*
G04 Layer_Color=8388736*
%FSLAX25Y25*%
%MOIN*%
G70*
G01*
G75*
%ADD10C,0.01000*%
%ADD18C,0.00600*%
%ADD42R,0.04461X0.04658*%
%ADD43O,0.07486X0.03359*%
%ADD44R,0.05721X0.03556*%
%ADD45R,0.05131X0.04737*%
%ADD46R,0.04737X0.05131*%
%ADD47O,0.01902X0.07870*%
%ADD48O,0.07870X0.01902*%
%ADD49O,0.07870X0.01902*%
%ADD50R,0.04737X0.12611*%
%ADD51R,0.04737X0.12611*%
%ADD52R,0.04658X0.04461*%
%ADD53R,0.04658X0.04461*%
%ADD54R,0.03300X0.04800*%
%ADD55R,0.08674X0.08674*%
%ADD56R,0.02375X0.06312*%
%ADD57R,0.02375X0.06312*%
%ADD58R,0.10248X0.07492*%
%ADD59R,0.07887X0.04737*%
%ADD60R,0.04461X0.04658*%
%ADD61R,0.09855X0.15761*%
%ADD62R,0.08674X0.05524*%
%ADD63R,0.08674X0.05524*%
%ADD64R,0.05367X0.06509*%
%ADD65C,0.07296*%
%ADD66C,0.27178*%
%ADD67C,0.05524*%
%ADD68O,0.04737X0.07488*%
%ADD69O,0.04737X0.07488*%
%ADD70C,0.03556*%
%ADD71C,0.06706*%
%ADD72R,0.06706X0.06706*%
%ADD73R,0.06784X0.06784*%
%ADD74C,0.06784*%
%ADD75C,0.07887*%
%ADD76R,0.07887X0.07887*%
%ADD77R,0.06706X0.06706*%
%ADD78C,0.06706*%
D10*
X299720Y1236D02*
G03*
X315480Y16978I9J15751D01*
G01*
X315480Y221709D02*
G03*
X299720Y237457I-15754J-6D01*
G01*
X16319D02*
G03*
X520Y221709I-26J-15774D01*
G01*
X520Y16937D02*
G03*
X16268Y1236I15725J23D01*
G01*
X520Y16937D02*
Y221709D01*
X16319Y237457D02*
X299720D01*
X315480Y16978D02*
Y222236D01*
X16268Y1236D02*
X299720D01*
D18*
X201307Y138244D02*
Y140618D01*
X111937Y138244D02*
Y140606D01*
Y138244D02*
X112331Y137850D01*
X200913D01*
X201307Y138244D01*
X200925Y141000D02*
X201307Y140618D01*
X112331Y141000D02*
X200925D01*
X111937Y140606D02*
X112331Y141000D01*
D42*
X99386Y194139D02*
D03*
X105455D02*
D03*
X68347Y85237D02*
D03*
X62278D02*
D03*
X105455Y180370D02*
D03*
X99386D02*
D03*
X80088Y69539D02*
D03*
X74019D02*
D03*
X91367Y69538D02*
D03*
X97436D02*
D03*
X116022Y69539D02*
D03*
X109953D02*
D03*
X86558Y39291D02*
D03*
X80489D02*
D03*
X98520Y39290D02*
D03*
X104589D02*
D03*
D43*
X86787Y101092D02*
D03*
Y96092D02*
D03*
Y91092D02*
D03*
X86787Y86092D02*
D03*
X115921Y101092D02*
D03*
X115921Y96092D02*
D03*
Y91092D02*
D03*
Y86092D02*
D03*
D44*
X309575Y44914D02*
D03*
X299735Y41174D02*
D03*
Y48654D02*
D03*
D45*
X287921Y47721D02*
D03*
Y42209D02*
D03*
X207992Y90862D02*
D03*
Y85350D02*
D03*
X250120Y90862D02*
D03*
Y85350D02*
D03*
X250119Y60854D02*
D03*
Y66365D02*
D03*
X274142Y42209D02*
D03*
Y47721D02*
D03*
X52210Y44703D02*
D03*
Y39191D02*
D03*
X52210Y69637D02*
D03*
Y64125D02*
D03*
X208300Y60844D02*
D03*
Y66356D02*
D03*
X62258Y44703D02*
D03*
Y39191D02*
D03*
X62210Y69637D02*
D03*
Y64125D02*
D03*
D46*
X227304Y90861D02*
D03*
X221792D02*
D03*
X67721Y100903D02*
D03*
X62209D02*
D03*
X304519Y145236D02*
D03*
X310031D02*
D03*
X287534Y161806D02*
D03*
X293045D02*
D03*
X264903Y145236D02*
D03*
X270414D02*
D03*
X264903Y195193D02*
D03*
X270414D02*
D03*
X264903Y178655D02*
D03*
X270414D02*
D03*
X304519Y161806D02*
D03*
X310031D02*
D03*
X287534Y145236D02*
D03*
X293045D02*
D03*
D47*
X172764Y58126D02*
D03*
X170795D02*
D03*
X168827D02*
D03*
X166858D02*
D03*
X164890D02*
D03*
X162921D02*
D03*
X160953D02*
D03*
X158984D02*
D03*
X157016D02*
D03*
X155047D02*
D03*
X153079D02*
D03*
X151110D02*
D03*
X149142D02*
D03*
X147173D02*
D03*
X145205D02*
D03*
X143236D02*
D03*
Y101826D02*
D03*
X145205D02*
D03*
X147173D02*
D03*
X149142D02*
D03*
X151110D02*
D03*
X153079D02*
D03*
X155047D02*
D03*
X157016D02*
D03*
X158984D02*
D03*
X160953D02*
D03*
X162921D02*
D03*
X164890D02*
D03*
X166858D02*
D03*
X168827D02*
D03*
X170795D02*
D03*
X172764D02*
D03*
D48*
X136150Y65212D02*
D03*
Y67181D02*
D03*
Y69149D02*
D03*
Y71118D02*
D03*
Y73086D02*
D03*
Y75055D02*
D03*
Y77023D02*
D03*
Y78992D02*
D03*
Y80960D02*
D03*
Y82929D02*
D03*
Y84897D02*
D03*
Y86866D02*
D03*
Y88834D02*
D03*
Y90803D02*
D03*
Y92771D02*
D03*
Y94740D02*
D03*
D49*
X179850D02*
D03*
Y92771D02*
D03*
Y90803D02*
D03*
Y88834D02*
D03*
Y86866D02*
D03*
Y84897D02*
D03*
Y82929D02*
D03*
Y80960D02*
D03*
Y78992D02*
D03*
Y77023D02*
D03*
Y75055D02*
D03*
Y73086D02*
D03*
Y71118D02*
D03*
Y69149D02*
D03*
Y67181D02*
D03*
Y65212D02*
D03*
D50*
X52339Y125236D02*
D03*
X62339D02*
D03*
X67339D02*
D03*
X72339D02*
D03*
X77339D02*
D03*
X82339D02*
D03*
X87339D02*
D03*
D51*
X57339D02*
D03*
D52*
X155244Y124565D02*
D03*
Y118496D02*
D03*
X121718Y124565D02*
D03*
Y118496D02*
D03*
X144068Y124565D02*
D03*
Y118496D02*
D03*
X132893Y124565D02*
D03*
Y118496D02*
D03*
X116021Y13712D02*
D03*
Y7643D02*
D03*
D53*
X216782Y202175D02*
D03*
X216802Y196106D02*
D03*
X226571Y202175D02*
D03*
X226591Y196106D02*
D03*
X216782Y177992D02*
D03*
X216802Y171923D02*
D03*
X99318Y124514D02*
D03*
X99338Y118445D02*
D03*
X110492Y118439D02*
D03*
X110472Y124508D02*
D03*
X217705Y156911D02*
D03*
X217725Y150842D02*
D03*
X228050Y156911D02*
D03*
X228070Y150842D02*
D03*
X116071Y33303D02*
D03*
X116051Y39372D02*
D03*
D54*
X227570Y170763D02*
D03*
Y177263D02*
D03*
X268520Y91230D02*
D03*
Y97730D02*
D03*
D55*
X158331Y16792D02*
D03*
X134709D02*
D03*
X196714D02*
D03*
X173092D02*
D03*
X236412D02*
D03*
X212790D02*
D03*
X276110D02*
D03*
X252488D02*
D03*
X309237Y63734D02*
D03*
X277741D02*
D03*
Y95230D02*
D03*
X309237D02*
D03*
D56*
X56638Y19422D02*
D03*
X48961D02*
D03*
D57*
X54079D02*
D03*
X51520D02*
D03*
X46402D02*
D03*
D58*
X224683Y61056D02*
D03*
X224687Y76492D02*
D03*
D59*
X264120Y71571D02*
D03*
Y81414D02*
D03*
D60*
X74000Y54451D02*
D03*
X80069Y54471D02*
D03*
X91317Y54451D02*
D03*
X97386Y54471D02*
D03*
X108634Y54451D02*
D03*
X114703Y54471D02*
D03*
D61*
X80020Y17130D02*
D03*
D62*
X105020D02*
D03*
Y26185D02*
D03*
D63*
Y8075D02*
D03*
D64*
X265223Y162730D02*
D03*
X273223D02*
D03*
D65*
X128000Y225636D02*
D03*
X138000Y225616D02*
D03*
X148000D02*
D03*
X158000Y225646D02*
D03*
X167990Y225626D02*
D03*
X177990D02*
D03*
X187990Y225616D02*
D03*
D66*
X16686Y17579D02*
D03*
X16268Y222236D02*
D03*
X299732Y16174D02*
D03*
Y221709D02*
D03*
D67*
X26186Y17579D02*
D03*
X23419Y10898D02*
D03*
X16737Y8131D02*
D03*
X10056Y10898D02*
D03*
X7288Y17579D02*
D03*
X10056Y24261D02*
D03*
X16737Y27028D02*
D03*
X23418Y24261D02*
D03*
X25768Y222236D02*
D03*
X23000Y215555D02*
D03*
X16319Y212787D02*
D03*
X9638Y215555D02*
D03*
X6870Y222236D02*
D03*
X9638Y228918D02*
D03*
X16319Y231685D02*
D03*
X23000Y228918D02*
D03*
X309233Y16174D02*
D03*
X306465Y9493D02*
D03*
X299784Y6726D02*
D03*
X293102Y9493D02*
D03*
X290335Y16174D02*
D03*
X293102Y22856D02*
D03*
X299784Y25623D02*
D03*
X306465Y22856D02*
D03*
X309233Y221709D02*
D03*
X306465Y215027D02*
D03*
X299784Y212260D02*
D03*
X293102Y215027D02*
D03*
X290335Y221709D02*
D03*
X293102Y228390D02*
D03*
X299784Y231157D02*
D03*
X306465Y228390D02*
D03*
D68*
X65594Y7808D02*
D03*
X37445D02*
D03*
D69*
Y21391D02*
D03*
X65594D02*
D03*
D70*
X59394Y16174D02*
D03*
X43646D02*
D03*
D71*
X30520Y46236D02*
D03*
D72*
Y56236D02*
D03*
D73*
X34878Y195252D02*
D03*
X7961Y75236D02*
D03*
Y195252D02*
D03*
X35760Y75236D02*
D03*
D74*
X34878Y185252D02*
D03*
Y175252D02*
D03*
Y165252D02*
D03*
Y155252D02*
D03*
Y145252D02*
D03*
X7961Y85236D02*
D03*
Y95236D02*
D03*
Y105236D02*
D03*
Y115236D02*
D03*
Y125236D02*
D03*
Y185252D02*
D03*
Y175252D02*
D03*
Y165252D02*
D03*
Y155252D02*
D03*
Y145252D02*
D03*
X35760Y105236D02*
D03*
Y95236D02*
D03*
Y85236D02*
D03*
D75*
X308074Y193236D02*
D03*
Y183236D02*
D03*
X298074Y193236D02*
D03*
Y183236D02*
D03*
X288074Y193236D02*
D03*
D76*
Y183236D02*
D03*
D77*
X308181Y127300D02*
D03*
D78*
X228181Y117300D02*
D03*
Y127300D02*
D03*
X238181Y117300D02*
D03*
Y127300D02*
D03*
X248181Y117300D02*
D03*
Y127300D02*
D03*
X258181Y117300D02*
D03*
Y127300D02*
D03*
X268181Y117300D02*
D03*
Y127300D02*
D03*
X278181Y117300D02*
D03*
Y127300D02*
D03*
X288181Y117300D02*
D03*
Y127300D02*
D03*
X298181Y117300D02*
D03*
Y127300D02*
D03*
X308181Y117300D02*
D03*
M02*
