G04*
G04 #@! TF.GenerationSoftware,Altium Limited,Altium Designer,18.1.9 (240)*
G04*
G04 Layer_Color=128*
%FSLAX25Y25*%
%MOIN*%
G70*
G01*
G75*
%ADD10C,0.01000*%
%ADD18C,0.00600*%
%ADD96R,0.01535X0.11811*%
D10*
X299720Y1236D02*
G03*
X315480Y16978I9J15751D01*
G01*
X315480Y221709D02*
G03*
X299720Y237457I-15754J-6D01*
G01*
X16319D02*
G03*
X520Y221709I-26J-15774D01*
G01*
X520Y16937D02*
G03*
X16268Y1236I15725J23D01*
G01*
X520Y16937D02*
Y221709D01*
X16319Y237457D02*
X299720D01*
X315480Y16978D02*
Y222236D01*
X16268Y1236D02*
X299720D01*
D18*
X201307Y138244D02*
Y140618D01*
X111937Y138244D02*
Y140606D01*
Y138244D02*
X112331Y137850D01*
X200913D01*
X201307Y138244D01*
X200925Y141000D02*
X201307Y140618D01*
X112331Y141000D02*
X200925D01*
X111937Y140606D02*
X112331Y141000D01*
D96*
X116957Y180336D02*
D03*
X119713D02*
D03*
X122469D02*
D03*
X125225D02*
D03*
X127981D02*
D03*
X130737D02*
D03*
X133493D02*
D03*
X136248D02*
D03*
X139004D02*
D03*
X141760D02*
D03*
X144516D02*
D03*
X147272D02*
D03*
X150028D02*
D03*
X152784D02*
D03*
X155540D02*
D03*
X158296D02*
D03*
X196878D02*
D03*
X194123D02*
D03*
X191367D02*
D03*
X188611D02*
D03*
X185855D02*
D03*
X183099D02*
D03*
X180343D02*
D03*
X177587D02*
D03*
X174831D02*
D03*
X172075D02*
D03*
X169319D02*
D03*
X166563D02*
D03*
X163808D02*
D03*
X161052D02*
D03*
M02*
