G04*
G04 #@! TF.GenerationSoftware,Altium Limited,Altium Designer,18.1.9 (240)*
G04*
G04 Layer_Color=65535*
%FSLAX25Y25*%
%MOIN*%
G70*
G01*
G75*
%ADD10C,0.01000*%
%ADD11C,0.02362*%
%ADD12C,0.01181*%
%ADD13C,0.00984*%
%ADD14C,0.00787*%
%ADD15C,0.00400*%
%ADD16C,0.00394*%
%ADD17C,0.00787*%
%ADD18C,0.00600*%
D10*
X103638Y83238D02*
G03*
X98992Y83238I-2323J176D01*
G01*
X116474Y82844D02*
G03*
X116474Y82844I-750J0D01*
G01*
X152440Y16786D02*
G03*
X152440Y16786I-5912J0D01*
G01*
X190823D02*
G03*
X190823Y16786I-5912J0D01*
G01*
X230521Y16786D02*
G03*
X230521Y16786I-5912J0D01*
G01*
X270219Y16786D02*
G03*
X270219Y16786I-5912J0D01*
G01*
X30520Y42575D02*
G03*
X30520Y49858I-60J3641D01*
G01*
X109228Y83198D02*
X111787Y83199D01*
X103638D02*
X109228D01*
X93480D02*
X98992D01*
X90960Y83198D02*
Y103946D01*
X111787D01*
Y83199D02*
Y103946D01*
X90960Y83199D02*
X93480D01*
X304005Y50662D02*
X307214D01*
Y48064D02*
Y50662D01*
Y39166D02*
Y41764D01*
Y39166D02*
Y41764D01*
Y39166D02*
Y41764D01*
X304005Y39166D02*
X307214D01*
X46039Y200039D02*
X93283D01*
X45839Y125236D02*
Y200039D01*
Y125236D02*
X49339D01*
X93839D02*
Y200039D01*
X90339Y125236D02*
X93839D01*
X77339Y195236D02*
X87339D01*
X77339Y180236D02*
Y195236D01*
X72339Y180236D02*
X77339D01*
X72339D02*
Y195236D01*
X67339D02*
X72339D01*
X67339Y180236D02*
Y195236D01*
X62339Y180236D02*
X67339D01*
X62339D02*
Y195236D01*
X52339D02*
X62339D01*
X52339Y170236D02*
Y195236D01*
X122557Y231551D02*
X193423D01*
X122557Y207929D02*
X193423D01*
X122557D02*
Y231551D01*
X193423Y207929D02*
Y231551D01*
X182992Y207929D02*
Y231550D01*
X172913Y207929D02*
Y231550D01*
X162913Y207929D02*
Y231550D01*
X152913Y207929D02*
Y231550D01*
X142913Y207929D02*
Y231550D01*
X132913Y207929D02*
Y231550D01*
X136677Y8918D02*
Y11945D01*
Y21639D02*
Y24666D01*
Y8918D02*
X138646Y6949D01*
X154394D01*
X156362Y8918D01*
Y11945D01*
Y21639D02*
Y24666D01*
X154394Y26634D02*
X156362Y24666D01*
X138646Y26634D02*
X154394D01*
X134710Y8912D02*
X138650Y4982D01*
X154400D01*
X158330Y8912D01*
X154400Y28602D02*
X158330Y24662D01*
X140610Y28602D02*
X154400D01*
X158330Y21639D02*
Y24662D01*
Y8912D02*
Y11945D01*
X134710Y8912D02*
Y11945D01*
Y21639D02*
Y24242D01*
X138640Y28602D02*
X140610D01*
X134710Y24662D02*
X138640Y28602D01*
X136677Y24666D02*
X138646Y26634D01*
X175061Y8918D02*
Y11945D01*
Y21639D02*
Y24666D01*
Y8918D02*
X177029Y6949D01*
X192777D01*
X194746Y8918D01*
Y11945D01*
Y21639D02*
Y24666D01*
X192777Y26634D02*
X194746Y24666D01*
X177029Y26634D02*
X192777D01*
X173093Y8912D02*
X177033Y4982D01*
X192783D01*
X196713Y8912D01*
X192783Y28602D02*
X196713Y24662D01*
X178993Y28602D02*
X192783D01*
X196713Y21639D02*
Y24662D01*
Y8912D02*
Y11945D01*
X173093Y8912D02*
Y11945D01*
Y21639D02*
Y24242D01*
X177023Y28602D02*
X178993D01*
X173093Y24662D02*
X177023Y28602D01*
X175061Y24666D02*
X177029Y26634D01*
X214759Y8918D02*
Y11945D01*
Y21639D02*
Y24666D01*
Y8918D02*
X216727Y6949D01*
X232475D01*
X234444Y8918D01*
Y11945D01*
Y21639D02*
Y24666D01*
X232475Y26634D02*
X234444Y24666D01*
X216727Y26634D02*
X232475D01*
X212791Y8912D02*
X216731Y4982D01*
X232481D01*
X236411Y8912D01*
X232481Y28602D02*
X236411Y24662D01*
X218691Y28602D02*
X232481D01*
X236411Y21639D02*
Y24662D01*
Y8912D02*
Y11945D01*
X212791Y8912D02*
Y11945D01*
Y21639D02*
Y24242D01*
X216721Y28602D02*
X218691D01*
X212791Y24662D02*
X216721Y28602D01*
X214759Y24666D02*
X216727Y26634D01*
X254457Y8918D02*
Y11945D01*
Y21639D02*
Y24666D01*
Y8918D02*
X256425Y6949D01*
X272173D01*
X274142Y8918D01*
Y11945D01*
Y21639D02*
Y24666D01*
X272173Y26634D02*
X274142Y24666D01*
X256425Y26634D02*
X272173D01*
X252489Y8912D02*
X256429Y4982D01*
X272179D01*
X276109Y8912D01*
X272179Y28602D02*
X276109Y24662D01*
X258389Y28602D02*
X272179D01*
X276109Y21639D02*
Y24662D01*
Y8912D02*
Y11945D01*
X252489Y8912D02*
Y11945D01*
Y21639D02*
Y24242D01*
X256419Y28602D02*
X258389D01*
X252489Y24662D02*
X256419Y28602D01*
X254457Y24666D02*
X256425Y26634D01*
X65594Y12261D02*
Y16937D01*
Y-656D02*
Y3355D01*
X37445Y12261D02*
Y16937D01*
Y-656D02*
Y3355D01*
X40688Y23006D02*
X45252D01*
X57787D02*
X62351D01*
X37445Y-656D02*
X65594D01*
X283089Y66482D02*
X285689D01*
X302389Y96215D02*
X304393Y94202D01*
X282466Y96215D02*
X302389Y96215D01*
X282466Y62750D02*
X304513D01*
X310189Y88382D02*
X310222Y68459D01*
X276757D02*
Y90506D01*
X308194Y90386D02*
X310189Y88382D01*
X284089Y90882D02*
X288089D01*
X285989Y88782D02*
Y93083D01*
X30520Y59897D02*
X34260D01*
Y52614D02*
Y59897D01*
X30520Y52614D02*
X34260D01*
X30520Y59897D02*
Y66000D01*
Y49858D02*
Y51236D01*
Y52614D01*
Y36472D02*
Y42575D01*
X6898Y56354D02*
X30520D01*
X6898Y46118D02*
X30520D01*
X2961Y36472D02*
Y66000D01*
Y36472D02*
X30520D01*
X2961Y66000D02*
X30520D01*
X39878Y140252D02*
Y190252D01*
X29878Y140252D02*
X39878D01*
X29878D02*
Y200252D01*
X39878D01*
Y190252D02*
Y200252D01*
X2961Y80236D02*
Y130236D01*
X12961D01*
Y70236D02*
Y130236D01*
X2961Y70236D02*
X12961D01*
X2961D02*
Y80236D01*
X12961Y140252D02*
Y190252D01*
X2961Y140252D02*
X12961D01*
X2961D02*
Y200252D01*
X12961D01*
Y190252D02*
Y200252D01*
X30760Y70236D02*
X40760D01*
Y110236D01*
X30760D02*
X40760D01*
X30760Y70236D02*
Y110236D01*
X284074Y178236D02*
X313074D01*
X283074D02*
X284074D01*
X283074D02*
Y179236D01*
Y198236D01*
X313074Y178236D02*
Y198236D01*
X283074D02*
X313074D01*
X268620Y68492D02*
Y84492D01*
X259620Y68492D02*
X268620D01*
X259620D02*
Y84492D01*
X268620D01*
X100098Y4531D02*
Y29728D01*
X85138Y4531D02*
X100098D01*
X85138D02*
Y29728D01*
X100098D01*
X299720Y1236D02*
G03*
X315480Y16978I9J15751D01*
G01*
X315480Y221709D02*
G03*
X299720Y237457I-15754J-6D01*
G01*
X16319D02*
G03*
X520Y221709I-26J-15774D01*
G01*
X520Y16937D02*
G03*
X16268Y1236I15725J23D01*
G01*
X520Y16937D02*
Y221709D01*
X16319Y237457D02*
X299720D01*
X315480Y16978D02*
Y222236D01*
X16268Y1236D02*
X299720D01*
D11*
X169910Y66986D02*
G03*
X169910Y67006I1181J10D01*
G01*
D12*
X180640Y62656D02*
G03*
X180640Y62666I591J5D01*
G01*
D13*
X213681Y194638D02*
G03*
X215281Y193038I1600J0D01*
G01*
X217781D02*
G03*
X219881Y195138I0J2100D01*
G01*
Y203638D02*
G03*
X218281Y205238I-1600J0D01*
G01*
X215781D02*
G03*
X213681Y203138I0J-2100D01*
G01*
X223469Y194638D02*
G03*
X225069Y193038I1600J0D01*
G01*
X227570D02*
G03*
X229669Y195138I0J2100D01*
G01*
Y203638D02*
G03*
X228069Y205238I-1600J0D01*
G01*
X225570D02*
G03*
X223469Y203138I0J-2100D01*
G01*
X213681Y170455D02*
G03*
X215281Y168855I1600J0D01*
G01*
X217781D02*
G03*
X219881Y170955I0J2100D01*
G01*
Y179455D02*
G03*
X218281Y181055I-1600J0D01*
G01*
X215781D02*
G03*
X213681Y178955I0J-2100D01*
G01*
X96218Y116976D02*
G03*
X97817Y115376I1600J0D01*
G01*
X100318D02*
G03*
X102418Y117476I0J2100D01*
G01*
Y125976D02*
G03*
X100818Y127576I-1600J0D01*
G01*
X98317D02*
G03*
X96218Y125476I0J-2100D01*
G01*
X113593Y125976D02*
G03*
X111993Y127576I-1600J0D01*
G01*
X109493D02*
G03*
X107393Y125476I0J-2100D01*
G01*
Y116976D02*
G03*
X108993Y115376I1600J0D01*
G01*
X111493D02*
G03*
X113593Y117476I0J2100D01*
G01*
X214604Y149373D02*
G03*
X216204Y147774I1600J0D01*
G01*
X218704D02*
G03*
X220804Y149873I0J2100D01*
G01*
Y158373D02*
G03*
X219204Y159974I-1600J0D01*
G01*
X216704D02*
G03*
X214604Y157873I0J-2100D01*
G01*
X224949Y149373D02*
G03*
X226549Y147774I1600J0D01*
G01*
X229048D02*
G03*
X231149Y149873I0J2100D01*
G01*
Y158373D02*
G03*
X229549Y159974I-1600J0D01*
G01*
X227048D02*
G03*
X224949Y157873I0J-2100D01*
G01*
X119172Y40840D02*
G03*
X117572Y42440I-1600J0D01*
G01*
X115072D02*
G03*
X112972Y40340I0J-2100D01*
G01*
Y31840D02*
G03*
X114572Y30240I1600J0D01*
G01*
X117072D02*
G03*
X119172Y32340I0J2100D01*
G01*
X101236Y190989D02*
X101298D01*
X96266D02*
X101236D01*
X96266D02*
Y197289D01*
X101298D01*
X103668Y190989D02*
X108605D01*
Y197289D01*
X103668D02*
X108605D01*
X66560Y88386D02*
X71497D01*
Y82086D02*
Y88386D01*
X66560Y82086D02*
X71497D01*
X59158Y88386D02*
X64190D01*
X59158Y82086D02*
Y88386D01*
Y82086D02*
X64128D01*
X64190D01*
X152094Y122778D02*
Y127715D01*
X158394D01*
Y122778D02*
Y127715D01*
X152094Y115376D02*
Y120408D01*
Y115376D02*
X158394D01*
Y120346D01*
Y120408D01*
X213681Y198038D02*
Y198138D01*
Y194638D02*
Y198038D01*
X215281Y193038D02*
X217981D01*
X219881Y194938D02*
Y198138D01*
Y200138D02*
Y200238D01*
Y203638D01*
X215581Y205238D02*
X218281D01*
X213681Y200138D02*
Y203338D01*
X223470Y198038D02*
Y198138D01*
Y194638D02*
Y198038D01*
X225070Y193038D02*
X227770D01*
X229670Y194938D02*
Y198138D01*
Y200138D02*
Y200238D01*
Y203638D01*
X225370Y205238D02*
X228070D01*
X223470Y200138D02*
Y203338D01*
X213681Y173855D02*
Y173955D01*
Y170455D02*
Y173855D01*
X215281Y168855D02*
X217981D01*
X219881Y170755D02*
Y173955D01*
Y175955D02*
Y176055D01*
Y179455D01*
X215581Y181055D02*
X218281D01*
X213681Y175955D02*
Y179155D01*
X96217Y120376D02*
Y120476D01*
Y116976D02*
Y120376D01*
X97817Y115376D02*
X100517D01*
X102417Y117276D02*
Y120476D01*
Y122476D02*
Y122576D01*
Y125976D01*
X98117Y127576D02*
X100817D01*
X96217Y122476D02*
Y125676D01*
X103668Y183520D02*
X108605D01*
Y177220D02*
Y183520D01*
X103668Y177220D02*
X108605D01*
X96266Y183520D02*
X101298D01*
X96266Y177220D02*
Y183520D01*
Y177220D02*
X101236D01*
X101298D01*
X118568Y122778D02*
Y127715D01*
X124868D01*
Y122778D02*
Y127715D01*
X118568Y115376D02*
Y120408D01*
Y115376D02*
X124868D01*
Y120346D01*
Y120408D01*
X113593Y122476D02*
Y122576D01*
Y125976D01*
X109293Y127576D02*
X111993D01*
X107393Y122476D02*
Y125676D01*
Y120376D02*
Y120476D01*
Y116976D02*
Y120376D01*
X108993Y115376D02*
X111693D01*
X113593Y117276D02*
Y120476D01*
X140919Y122778D02*
Y127715D01*
X147219D01*
Y122778D02*
Y127715D01*
X140919Y115376D02*
Y120408D01*
Y115376D02*
X147219D01*
Y120346D01*
Y120408D01*
X129743Y122778D02*
Y127715D01*
X136043D01*
Y122778D02*
Y127715D01*
X129743Y115376D02*
Y120408D01*
Y115376D02*
X136043D01*
Y120346D01*
Y120408D01*
X214604Y152774D02*
Y152874D01*
Y149374D02*
Y152774D01*
X216204Y147774D02*
X218904D01*
X220804Y149674D02*
Y152874D01*
Y154874D02*
Y154974D01*
Y158374D01*
X216504Y159974D02*
X219204D01*
X214604Y154874D02*
Y158074D01*
X224949Y152774D02*
Y152874D01*
Y149374D02*
Y152774D01*
X226549Y147774D02*
X229249D01*
X231149Y149674D02*
Y152874D01*
Y154874D02*
Y154974D01*
Y158374D01*
X226849Y159974D02*
X229549D01*
X224949Y154874D02*
Y158074D01*
X78301Y72688D02*
X83238D01*
Y66388D02*
Y72688D01*
X78301Y66388D02*
X83238D01*
X70899Y72688D02*
X75931D01*
X70899Y66388D02*
Y72688D01*
Y66388D02*
X75869D01*
X75931D01*
X88217D02*
X93154D01*
X88217D02*
Y72688D01*
X93154D01*
X95524Y66388D02*
X100556D01*
Y72688D01*
X95586D02*
X100556D01*
X95524D02*
X95586D01*
X114235D02*
X119172D01*
Y66388D02*
Y72688D01*
X114235Y66388D02*
X119172D01*
X106833Y72688D02*
X111865D01*
X106833Y66388D02*
Y72688D01*
Y66388D02*
X111803D01*
X111865D01*
X112872Y11925D02*
Y16862D01*
X119172D01*
Y11925D02*
Y16862D01*
X112872Y4523D02*
Y9555D01*
Y4523D02*
X119172D01*
Y9493D01*
Y9555D01*
X84771Y42440D02*
X89708D01*
Y36140D02*
Y42440D01*
X84771Y36140D02*
X89708D01*
X77369Y42440D02*
X82401D01*
X77369Y36140D02*
Y42440D01*
Y36140D02*
X82339D01*
X82401D01*
X95370D02*
X100307D01*
X95370D02*
Y42440D01*
X100307D01*
X102677Y36140D02*
X107709D01*
Y42440D01*
X102739D02*
X107709D01*
X102677D02*
X102739D01*
X84537Y52250D02*
Y56850D01*
X70899Y51321D02*
X75462D01*
X70899D02*
Y57621D01*
X75462D01*
X78612Y51321D02*
X83238D01*
Y57621D01*
X78815D02*
X83238D01*
X78612D02*
X78815D01*
X101855Y52250D02*
Y56850D01*
X88217Y51321D02*
X92780D01*
X88217D02*
Y57621D01*
X92780D01*
X95930Y51321D02*
X100556D01*
Y57621D01*
X96133D02*
X100556D01*
X95930D02*
X96133D01*
X119172Y52250D02*
Y56850D01*
X105534Y51321D02*
X110097D01*
X105534D02*
Y57621D01*
X110097D01*
X113247Y51321D02*
X117873D01*
Y57621D01*
X113450D02*
X117873D01*
X113247D02*
X113450D01*
X119172Y37340D02*
Y37440D01*
Y40840D01*
X114872Y42440D02*
X117572D01*
X112972Y37340D02*
Y40540D01*
Y35240D02*
Y35340D01*
Y31840D02*
Y35240D01*
X114572Y30240D02*
X117272D01*
X119172Y32140D02*
Y35340D01*
D14*
X301112Y43733D02*
Y46095D01*
X291071Y39059D02*
Y43390D01*
X288708Y39059D02*
X291071D01*
X284771D02*
X288708D01*
X284771D02*
Y43390D01*
X291071Y46539D02*
Y50870D01*
X284771D02*
X291071D01*
X284771Y46539D02*
Y50870D01*
X211142Y82200D02*
Y86531D01*
X208779Y82200D02*
X211142D01*
X204842D02*
X208779D01*
X204842D02*
Y86531D01*
X211142Y89680D02*
Y94011D01*
X204842D02*
X211142D01*
X204842Y89680D02*
Y94011D01*
X218642Y87711D02*
X222973D01*
X218642D02*
Y90074D01*
Y94011D01*
X222973D01*
X226122Y87711D02*
X230453D01*
Y94011D01*
X226122D02*
X230453D01*
X253270Y82200D02*
Y86531D01*
X250907Y82200D02*
X253270D01*
X246970D02*
X250907D01*
X246970D02*
Y86531D01*
X253270Y89680D02*
Y94011D01*
X246970D02*
X253270D01*
X246970Y89680D02*
Y94011D01*
Y65184D02*
Y69515D01*
X249333D01*
X253270D01*
Y65184D02*
Y69515D01*
X246970Y57704D02*
Y62035D01*
Y57704D02*
X253270D01*
Y62035D01*
X141268Y63244D02*
X174732D01*
Y96709D01*
X141268D02*
X174732D01*
X141268Y63244D02*
Y96709D01*
X270992Y46539D02*
Y50870D01*
X277292D01*
Y46539D02*
Y50870D01*
X270992Y39059D02*
Y43390D01*
Y39059D02*
X274929D01*
X277292D01*
Y43390D01*
X59060Y97753D02*
X63391D01*
X59060D02*
Y104053D01*
X63391D01*
X66540Y97753D02*
X70871D01*
Y101690D01*
Y104053D01*
X66540D02*
X70871D01*
X225208Y174172D02*
X229932D01*
X225208Y170826D02*
Y178700D01*
X229932Y170826D02*
Y178700D01*
X266158Y94640D02*
X270882D01*
X266158Y91294D02*
Y99168D01*
X270882Y91294D02*
Y99168D01*
X55360Y36042D02*
Y40373D01*
X49060Y36042D02*
X55360D01*
X49060D02*
Y40373D01*
X55360Y43522D02*
Y47853D01*
X51423D02*
X55360D01*
X49060D02*
X51423D01*
X49060Y43522D02*
Y47853D01*
X55360Y60976D02*
Y65307D01*
X49060Y60976D02*
X55360D01*
X49060D02*
Y65307D01*
X55360Y68456D02*
Y72787D01*
X51423D02*
X55360D01*
X49060D02*
X51423D01*
X49060Y68456D02*
Y72787D01*
X308850Y148386D02*
X313181D01*
Y142086D02*
Y148386D01*
X308850Y142086D02*
X313181D01*
X301370Y148386D02*
X305701D01*
X301370Y144449D02*
Y148386D01*
Y142086D02*
Y144449D01*
Y142086D02*
X305701D01*
X291864Y164956D02*
X296195D01*
Y158656D02*
Y164956D01*
X291864Y158656D02*
X296195D01*
X284384Y164956D02*
X288715D01*
X284384Y161019D02*
Y164956D01*
Y158656D02*
Y161019D01*
Y158656D02*
X288715D01*
X205150Y65174D02*
Y69505D01*
X211450D01*
Y65174D02*
Y69505D01*
X205150Y57694D02*
Y62025D01*
Y57694D02*
X209087D01*
X211450D01*
Y62025D01*
X65408Y36042D02*
Y40373D01*
X59108Y36042D02*
X65408D01*
X59108D02*
Y40373D01*
X65408Y43522D02*
Y47853D01*
X61471D02*
X65408D01*
X59108D02*
X61471D01*
X59108Y43522D02*
Y47853D01*
X65360Y60976D02*
Y65307D01*
X59060Y60976D02*
X65360D01*
X59060D02*
Y65307D01*
X65360Y68456D02*
Y72787D01*
X61423D02*
X65360D01*
X59060D02*
X61423D01*
X59060Y68456D02*
Y72787D01*
X269233Y148386D02*
X273564D01*
Y142086D02*
Y148386D01*
X269233Y142086D02*
X273564D01*
X261753Y148386D02*
X266084D01*
X261753Y144449D02*
Y148386D01*
Y142086D02*
Y144449D01*
Y142086D02*
X266084D01*
X269233Y198343D02*
X273564D01*
Y192043D02*
Y198343D01*
X269233Y192043D02*
X273564D01*
X261753Y198343D02*
X266084D01*
X261753Y194406D02*
Y198343D01*
Y192043D02*
Y194406D01*
Y192043D02*
X266084D01*
X269233Y181805D02*
X273564D01*
Y175505D02*
Y181805D01*
X269233Y175505D02*
X273564D01*
X261753Y181805D02*
X266084D01*
X261753Y177868D02*
Y181805D01*
Y175505D02*
Y177868D01*
Y175505D02*
X266084D01*
X308850Y164956D02*
X313181D01*
Y158656D02*
Y164956D01*
X308850Y158656D02*
X313181D01*
X301370Y164956D02*
X305701D01*
X301370Y161019D02*
Y164956D01*
Y158656D02*
Y161019D01*
Y158656D02*
X305701D01*
X291864Y148386D02*
X296195D01*
Y142086D02*
Y148386D01*
X291864Y142086D02*
X296195D01*
X284384Y148386D02*
X288715D01*
X284384Y144449D02*
Y148386D01*
Y142086D02*
Y144449D01*
Y142086D02*
X288715D01*
X223181Y132300D02*
X313181D01*
X223181Y112300D02*
X313181D01*
Y132300D01*
X223181Y112300D02*
Y132300D01*
D15*
X218111Y78664D02*
X219353D01*
X230021D02*
X230785D01*
X218111Y58974D02*
X219349D01*
X230017D02*
X230785D01*
Y78664D01*
X218111Y58988D02*
Y78668D01*
D16*
X225116Y65019D02*
Y66200D01*
X220785Y66594D02*
X229053D01*
X228659Y67775D02*
Y69350D01*
X221179Y67775D02*
X228659D01*
X221179D02*
Y69350D01*
X228659D01*
X220785Y70531D02*
X229053D01*
X225116Y70924D02*
Y72499D01*
D17*
X271407Y158656D02*
X276604D01*
Y166806D01*
X271407D02*
X276604D01*
X261753Y158656D02*
X266950D01*
X261753D02*
Y166806D01*
X266950D01*
D18*
X18263Y107251D02*
X17763Y107751D01*
X16764D01*
X16264Y107251D01*
Y105252D01*
X16764Y104752D01*
X17763D01*
X18263Y105252D01*
Y106251D01*
X17264D01*
X19263Y104752D02*
Y107751D01*
X21262Y104752D01*
Y107751D01*
X22262D02*
Y104752D01*
X23761D01*
X24261Y105252D01*
Y107251D01*
X23761Y107751D01*
X22262D01*
X16264Y143801D02*
Y141802D01*
X17264Y140802D01*
X18263Y141802D01*
Y143801D01*
X21262Y143301D02*
X20762Y143801D01*
X19763D01*
X19263Y143301D01*
Y141302D01*
X19763Y140802D01*
X20762D01*
X21262Y141302D01*
X24261Y143301D02*
X23761Y143801D01*
X22762D01*
X22262Y143301D01*
Y141302D01*
X22762Y140802D01*
X23761D01*
X24261Y141302D01*
X16264Y82561D02*
Y85560D01*
X17763D01*
X18263Y85061D01*
Y84061D01*
X17763Y83561D01*
X16264D01*
X19263Y82561D02*
Y84561D01*
X20263Y85560D01*
X21262Y84561D01*
Y82561D01*
Y84061D01*
X19263D01*
X22262Y82561D02*
X23261D01*
X22762D01*
Y85560D01*
X22262Y85061D01*
X16264Y129941D02*
Y127942D01*
X17264Y126942D01*
X18263Y127942D01*
Y129941D01*
X21262Y129441D02*
X20762Y129941D01*
X19763D01*
X19263Y129441D01*
Y127442D01*
X19763Y126942D01*
X20762D01*
X21262Y127442D01*
X24261Y129441D02*
X23761Y129941D01*
X22762D01*
X22262Y129441D01*
Y127442D01*
X22762Y126942D01*
X23761D01*
X24261Y127442D01*
X16264Y96656D02*
Y94656D01*
X17264Y93656D01*
X18263Y94656D01*
Y96656D01*
X21262Y96156D02*
X20762Y96656D01*
X19763D01*
X19263Y96156D01*
Y94156D01*
X19763Y93656D01*
X20762D01*
X21262Y94156D01*
X24261Y96156D02*
X23761Y96656D01*
X22762D01*
X22262Y96156D01*
Y94156D01*
X22762Y93656D01*
X23761D01*
X24261Y94156D01*
X16264Y115847D02*
Y118846D01*
X17763D01*
X18263Y118346D01*
Y117347D01*
X17763Y116847D01*
X16264D01*
X19263Y115847D02*
Y117846D01*
X20263Y118846D01*
X21262Y117846D01*
Y115847D01*
Y117347D01*
X19263D01*
X24261Y115847D02*
X22262D01*
X24261Y117846D01*
Y118346D01*
X23761Y118846D01*
X22762D01*
X22262Y118346D01*
X16264Y177086D02*
Y175087D01*
X17264Y174087D01*
X18263Y175087D01*
Y177086D01*
X21262Y176587D02*
X20762Y177086D01*
X19763D01*
X19263Y176587D01*
Y174587D01*
X19763Y174087D01*
X20762D01*
X21262Y174587D01*
X24261Y176587D02*
X23761Y177086D01*
X22762D01*
X22262Y176587D01*
Y174587D01*
X22762Y174087D01*
X23761D01*
X24261Y174587D01*
X18263Y198777D02*
X17763Y199277D01*
X16764D01*
X16264Y198777D01*
Y196778D01*
X16764Y196278D01*
X17763D01*
X18263Y196778D01*
Y197777D01*
X17264D01*
X19263Y196278D02*
Y199277D01*
X21262Y196278D01*
Y199277D01*
X22262D02*
Y196278D01*
X23761D01*
X24261Y196778D01*
Y198777D01*
X23761Y199277D01*
X22262D01*
X16264Y151897D02*
Y154896D01*
X17763D01*
X18263Y154396D01*
Y153396D01*
X17763Y152897D01*
X16264D01*
X19263Y151897D02*
Y153896D01*
X20263Y154896D01*
X21262Y153896D01*
Y151897D01*
Y153396D01*
X19263D01*
X22262Y154396D02*
X22762Y154896D01*
X23761D01*
X24261Y154396D01*
Y153896D01*
X23761Y153396D01*
X23261D01*
X23761D01*
X24261Y152897D01*
Y152397D01*
X23761Y151897D01*
X22762D01*
X22262Y152397D01*
X269920Y87412D02*
X266921D01*
X18263Y165491D02*
X17763Y165991D01*
X16764D01*
X16264Y165491D01*
Y163492D01*
X16764Y162992D01*
X17763D01*
X18263Y163492D01*
Y164492D01*
X17264D01*
X19263Y162992D02*
Y165991D01*
X21262Y162992D01*
Y165991D01*
X22262D02*
Y162992D01*
X23761D01*
X24261Y163492D01*
Y165491D01*
X23761Y165991D01*
X22262D01*
X16264Y185183D02*
Y188182D01*
X17763D01*
X18263Y187682D01*
Y186682D01*
X17763Y186182D01*
X16264D01*
X19263Y185183D02*
Y187182D01*
X20263Y188182D01*
X21262Y187182D01*
Y185183D01*
Y186682D01*
X19263D01*
X24261Y188182D02*
X23261Y187682D01*
X22262Y186682D01*
Y185682D01*
X22762Y185183D01*
X23761D01*
X24261Y185682D01*
Y186182D01*
X23761Y186682D01*
X22262D01*
X18263Y73965D02*
X17763Y74465D01*
X16764D01*
X16264Y73965D01*
Y71966D01*
X16764Y71466D01*
X17763D01*
X18263Y71966D01*
Y72966D01*
X17264D01*
X19263Y71466D02*
Y74465D01*
X21262Y71466D01*
Y74465D01*
X22262D02*
Y71466D01*
X23761D01*
X24261Y71966D01*
Y73965D01*
X23761Y74465D01*
X22262D01*
X149999Y196037D02*
X149570Y195894D01*
X149285Y195466D01*
X149142Y194752D01*
Y194323D01*
X149285Y193609D01*
X149570Y193180D01*
X149999Y193038D01*
X150285D01*
X150713Y193180D01*
X150999Y193609D01*
X151142Y194323D01*
Y194752D01*
X150999Y195466D01*
X150713Y195894D01*
X150285Y196037D01*
X149999D01*
X151956Y193323D02*
X151813Y193180D01*
X151956Y193038D01*
X152098Y193180D01*
X151956Y193323D01*
X154612Y195037D02*
X154469Y194609D01*
X154184Y194323D01*
X153755Y194180D01*
X153612D01*
X153184Y194323D01*
X152898Y194609D01*
X152755Y195037D01*
Y195180D01*
X152898Y195608D01*
X153184Y195894D01*
X153612Y196037D01*
X153755D01*
X154184Y195894D01*
X154469Y195608D01*
X154612Y195037D01*
Y194323D01*
X154469Y193609D01*
X154184Y193180D01*
X153755Y193038D01*
X153470D01*
X153041Y193180D01*
X152898Y193466D01*
X157140Y195608D02*
X156997Y195894D01*
X156569Y196037D01*
X156283D01*
X155855Y195894D01*
X155569Y195466D01*
X155426Y194752D01*
Y194037D01*
X155569Y193466D01*
X155855Y193180D01*
X156283Y193038D01*
X156426D01*
X156855Y193180D01*
X157140Y193466D01*
X157283Y193895D01*
Y194037D01*
X157140Y194466D01*
X156855Y194752D01*
X156426Y194894D01*
X156283D01*
X155855Y194752D01*
X155569Y194466D01*
X155426Y194037D01*
X158083Y195751D02*
X157940Y195894D01*
X158083Y196037D01*
X158226Y195894D01*
Y195608D01*
X158083Y195323D01*
X157940Y195180D01*
X159740Y196037D02*
X159454Y195894D01*
X159168Y195608D01*
X159026Y195323D01*
X158883Y194894D01*
Y194180D01*
X159026Y193752D01*
X159168Y193466D01*
X159454Y193180D01*
X159740Y193038D01*
X160311D01*
X160597Y193180D01*
X160882Y193466D01*
X161025Y193752D01*
X161168Y194180D01*
Y194894D01*
X161025Y195323D01*
X160882Y195608D01*
X160597Y195894D01*
X160311Y196037D01*
X159740D01*
X161868D02*
Y193038D01*
X163582D01*
X165767Y196037D02*
X163910D01*
Y193038D01*
X165767D01*
X163910Y194609D02*
X165053D01*
X166267Y196037D02*
Y193038D01*
Y196037D02*
X167267D01*
X167695Y195894D01*
X167981Y195608D01*
X168124Y195323D01*
X168266Y194894D01*
Y194180D01*
X168124Y193752D01*
X167981Y193466D01*
X167695Y193180D01*
X167267Y193038D01*
X166267D01*
X128143Y212038D02*
X127857Y211895D01*
X127572Y211610D01*
X127429Y211324D01*
Y210753D01*
X127572Y210467D01*
X127857Y210181D01*
X128143Y210038D01*
X128572Y209896D01*
X129286D01*
X129714Y210038D01*
X130000Y210181D01*
X130286Y210467D01*
X130428Y210753D01*
Y211324D01*
X130286Y211610D01*
X130000Y211895D01*
X129714Y212038D01*
X129286D01*
Y211324D02*
Y212038D01*
X127429Y212724D02*
X130428D01*
X127429D02*
X130428Y214723D01*
X127429D02*
X130428D01*
X127429Y215552D02*
X130428D01*
X127429D02*
Y216551D01*
X127572Y216980D01*
X127857Y217266D01*
X128143Y217408D01*
X128572Y217551D01*
X129286D01*
X129714Y217408D01*
X130000Y217266D01*
X130286Y216980D01*
X130428Y216551D01*
Y215552D01*
X137279Y209896D02*
X140278Y211038D01*
X137279Y212181D02*
X140278Y211038D01*
X137993Y214709D02*
X137707Y214566D01*
X137422Y214281D01*
X137279Y213995D01*
Y213423D01*
X137422Y213138D01*
X137707Y212852D01*
X137993Y212709D01*
X138422Y212566D01*
X139136D01*
X139564Y212709D01*
X139850Y212852D01*
X140136Y213138D01*
X140278Y213423D01*
Y213995D01*
X140136Y214281D01*
X139850Y214566D01*
X139564Y214709D01*
X137993Y217694D02*
X137707Y217551D01*
X137422Y217266D01*
X137279Y216980D01*
Y216409D01*
X137422Y216123D01*
X137707Y215837D01*
X137993Y215694D01*
X138422Y215552D01*
X139136D01*
X139564Y215694D01*
X139850Y215837D01*
X140136Y216123D01*
X140278Y216409D01*
Y216980D01*
X140136Y217266D01*
X139850Y217551D01*
X139564Y217694D01*
X147119Y212836D02*
X150118D01*
X147119D02*
Y213836D01*
X147262Y214264D01*
X147547Y214550D01*
X147833Y214692D01*
X148262Y214835D01*
X148976D01*
X149404Y214692D01*
X149690Y214550D01*
X149976Y214264D01*
X150118Y213836D01*
Y212836D01*
X147119Y216364D02*
X147262Y215935D01*
X147690Y215649D01*
X148405Y215507D01*
X148833D01*
X149547Y215649D01*
X149976Y215935D01*
X150118Y216364D01*
Y216649D01*
X149976Y217078D01*
X149547Y217363D01*
X148833Y217506D01*
X148405D01*
X147690Y217363D01*
X147262Y217078D01*
X147119Y216649D01*
Y216364D01*
X177629Y212836D02*
X180628D01*
X177629D02*
Y213836D01*
X177772Y214264D01*
X178058Y214550D01*
X178343Y214692D01*
X178772Y214835D01*
X179486D01*
X179914Y214692D01*
X180200Y214550D01*
X180486Y214264D01*
X180628Y213836D01*
Y212836D01*
X178343Y217649D02*
X178058Y217506D01*
X177772Y217220D01*
X177629Y216935D01*
Y216364D01*
X177772Y216078D01*
X178058Y215792D01*
X178343Y215649D01*
X178772Y215507D01*
X179486D01*
X179914Y215649D01*
X180200Y215792D01*
X180486Y216078D01*
X180628Y216364D01*
Y216935D01*
X180486Y217220D01*
X180200Y217506D01*
X179914Y217649D01*
X157459Y214626D02*
X160458D01*
X157459D02*
Y215626D01*
X157602Y216054D01*
X157887Y216340D01*
X158173Y216482D01*
X158602Y216625D01*
X159316D01*
X159744Y216482D01*
X160030Y216340D01*
X160316Y216054D01*
X160458Y215626D01*
Y214626D01*
X158030Y217297D02*
X157887Y217582D01*
X157459Y218011D01*
X160458D01*
X167789Y209896D02*
X170788D01*
X167789D02*
Y211181D01*
X167932Y211610D01*
X168075Y211752D01*
X168360Y211895D01*
X168646D01*
X168932Y211752D01*
X169074Y211610D01*
X169217Y211181D01*
Y209896D01*
Y210895D02*
X170788Y211895D01*
X167789Y214423D02*
Y212566D01*
X170788D01*
Y214423D01*
X169217Y212566D02*
Y213709D01*
X168218Y216923D02*
X167932Y216637D01*
X167789Y216209D01*
Y215637D01*
X167932Y215209D01*
X168218Y214923D01*
X168503D01*
X168789Y215066D01*
X168932Y215209D01*
X169074Y215494D01*
X169360Y216351D01*
X169503Y216637D01*
X169646Y216780D01*
X169931Y216923D01*
X170360D01*
X170646Y216637D01*
X170788Y216209D01*
Y215637D01*
X170646Y215209D01*
X170360Y214923D01*
X188183Y214978D02*
X187898Y214835D01*
X187612Y214550D01*
X187469Y214264D01*
Y213693D01*
X187612Y213407D01*
X187898Y213121D01*
X188183Y212979D01*
X188612Y212836D01*
X189326D01*
X189754Y212979D01*
X190040Y213121D01*
X190326Y213407D01*
X190468Y213693D01*
Y214264D01*
X190326Y214550D01*
X190040Y214835D01*
X189754Y214978D01*
X187898Y217820D02*
X187612Y217535D01*
X187469Y217106D01*
Y216535D01*
X187612Y216106D01*
X187898Y215821D01*
X188183D01*
X188469Y215964D01*
X188612Y216106D01*
X188754Y216392D01*
X189040Y217249D01*
X189183Y217535D01*
X189326Y217677D01*
X189611Y217820D01*
X190040D01*
X190326Y217535D01*
X190468Y217106D01*
Y216535D01*
X190326Y216106D01*
X190040Y215821D01*
X127520Y105236D02*
Y103093D01*
X127662Y102665D01*
X127948Y102379D01*
X128377Y102236D01*
X128662D01*
X129091Y102379D01*
X129376Y102665D01*
X129519Y103093D01*
Y105236D01*
X132062Y104807D02*
X131919Y105093D01*
X131490Y105236D01*
X131204D01*
X130776Y105093D01*
X130490Y104664D01*
X130348Y103950D01*
Y103236D01*
X130490Y102665D01*
X130776Y102379D01*
X131204Y102236D01*
X131347D01*
X131776Y102379D01*
X132062Y102665D01*
X132204Y103093D01*
Y103236D01*
X132062Y103665D01*
X131776Y103950D01*
X131347Y104093D01*
X131204D01*
X130776Y103950D01*
X130490Y103665D01*
X130348Y103236D01*
X132861Y101236D02*
X135146D01*
X135532Y104664D02*
X135818Y104807D01*
X136246Y105236D01*
Y102236D01*
X153653Y130628D02*
Y133627D01*
X155153D01*
X155653Y133127D01*
Y132128D01*
X155153Y131628D01*
X153653D01*
X154653D02*
X155653Y130628D01*
X156652D02*
X157652D01*
X157152D01*
Y133627D01*
X156652Y133127D01*
X159151D02*
X159651Y133627D01*
X160651D01*
X161151Y133127D01*
Y132627D01*
X160651Y132128D01*
X161151Y131628D01*
Y131128D01*
X160651Y130628D01*
X159651D01*
X159151Y131128D01*
Y131628D01*
X159651Y132128D01*
X159151Y132627D01*
Y133127D01*
X159651Y132128D02*
X160651D01*
X141020Y130804D02*
Y133803D01*
X142519D01*
X143019Y133303D01*
Y132303D01*
X142519Y131804D01*
X141020D01*
X142019D02*
X143019Y130804D01*
X144019D02*
X145018D01*
X144518D01*
Y133803D01*
X144019Y133303D01*
X146518Y133803D02*
X148517D01*
Y133303D01*
X146518Y131304D01*
Y130804D01*
X129820D02*
Y133803D01*
X131319D01*
X131819Y133303D01*
Y132303D01*
X131319Y131804D01*
X129820D01*
X130819D02*
X131819Y130804D01*
X132819D02*
X133818D01*
X133318D01*
Y133803D01*
X132819Y133303D01*
X137317Y133803D02*
X136318Y133303D01*
X135318Y132303D01*
Y131304D01*
X135818Y130804D01*
X136817D01*
X137317Y131304D01*
Y131804D01*
X136817Y132303D01*
X135318D01*
X118720Y130804D02*
Y133803D01*
X120219D01*
X120719Y133303D01*
Y132303D01*
X120219Y131804D01*
X118720D01*
X119719D02*
X120719Y130804D01*
X121719D02*
X122718D01*
X122219D01*
Y133803D01*
X121719Y133303D01*
X126217Y133803D02*
X124218D01*
Y132303D01*
X125217Y132803D01*
X125717D01*
X126217Y132303D01*
Y131304D01*
X125717Y130804D01*
X124718D01*
X124218Y131304D01*
X97436Y199504D02*
Y202503D01*
X98935D01*
X99435Y202003D01*
Y201003D01*
X98935Y200503D01*
X97436D01*
X98435D02*
X99435Y199504D01*
X100435D02*
X101434D01*
X100935D01*
Y202503D01*
X100435Y202003D01*
X104433Y199504D02*
Y202503D01*
X102934Y201003D01*
X104933D01*
X97436Y185386D02*
Y188384D01*
X98935D01*
X99435Y187885D01*
Y186885D01*
X98935Y186385D01*
X97436D01*
X98435D02*
X99435Y185386D01*
X100435D02*
X101434D01*
X100935D01*
Y188384D01*
X100435Y187885D01*
X102934D02*
X103434Y188384D01*
X104433D01*
X104933Y187885D01*
Y187385D01*
X104433Y186885D01*
X103934D01*
X104433D01*
X104933Y186385D01*
Y185885D01*
X104433Y185386D01*
X103434D01*
X102934Y185885D01*
X225420Y185303D02*
Y182304D01*
X226919D01*
X227419Y182804D01*
Y184803D01*
X226919Y185303D01*
X225420D01*
X230418Y182304D02*
X228419D01*
X230418Y184303D01*
Y184803D01*
X229918Y185303D01*
X228919D01*
X228419Y184803D01*
X216719Y165603D02*
X216219Y166103D01*
X215219D01*
X214720Y165603D01*
Y163604D01*
X215219Y163104D01*
X216219D01*
X216719Y163604D01*
X217719Y165603D02*
X218218Y166103D01*
X219218D01*
X219718Y165603D01*
Y165103D01*
X219218Y164603D01*
X218718D01*
X219218D01*
X219718Y164103D01*
Y163604D01*
X219218Y163104D01*
X218218D01*
X217719Y163604D01*
X222217Y163104D02*
Y166103D01*
X220718Y164603D01*
X222717D01*
X215004Y186645D02*
X214504Y187144D01*
X213505D01*
X213005Y186645D01*
Y184645D01*
X213505Y184145D01*
X214504D01*
X215004Y184645D01*
X218003Y184145D02*
X216004D01*
X218003Y186145D01*
Y186645D01*
X217503Y187144D01*
X216504D01*
X216004Y186645D01*
X219003Y187144D02*
X221002D01*
Y186645D01*
X219003Y184645D01*
Y184145D01*
X226429Y210705D02*
X225929Y211205D01*
X224929D01*
X224429Y210705D01*
Y208706D01*
X224929Y208206D01*
X225929D01*
X226429Y208706D01*
X229428Y208206D02*
X227428D01*
X229428Y210206D01*
Y210705D01*
X228928Y211205D01*
X227928D01*
X227428Y210705D01*
X232427Y211205D02*
X231427Y210705D01*
X230427Y209706D01*
Y208706D01*
X230927Y208206D01*
X231927D01*
X232427Y208706D01*
Y209206D01*
X231927Y209706D01*
X230427D01*
X215004Y210705D02*
X214504Y211205D01*
X213505D01*
X213005Y210705D01*
Y208706D01*
X213505Y208206D01*
X214504D01*
X215004Y208706D01*
X218003Y208206D02*
X216004D01*
X218003Y210206D01*
Y210705D01*
X217503Y211205D01*
X216504D01*
X216004Y210705D01*
X221002Y211205D02*
X219003D01*
Y209706D01*
X220002Y210206D01*
X220502D01*
X221002Y209706D01*
Y208706D01*
X220502Y208206D01*
X219503D01*
X219003Y208706D01*
X227019Y165603D02*
X226519Y166103D01*
X225519D01*
X225020Y165603D01*
Y163604D01*
X225519Y163104D01*
X226519D01*
X227019Y163604D01*
X230018Y163104D02*
X228019D01*
X230018Y165103D01*
Y165603D01*
X229518Y166103D01*
X228519D01*
X228019Y165603D01*
X231018D02*
X231518Y166103D01*
X232517D01*
X233017Y165603D01*
Y165103D01*
X232517Y164603D01*
X232017D01*
X232517D01*
X233017Y164103D01*
Y163604D01*
X232517Y163104D01*
X231518D01*
X231018Y163604D01*
X109519Y133203D02*
X109019Y133703D01*
X108019D01*
X107520Y133203D01*
Y131204D01*
X108019Y130704D01*
X109019D01*
X109519Y131204D01*
X112518Y130704D02*
X110519D01*
X112518Y132703D01*
Y133203D01*
X112018Y133703D01*
X111019D01*
X110519Y133203D01*
X115517Y130704D02*
X113518D01*
X115517Y132703D01*
Y133203D01*
X115017Y133703D01*
X114017D01*
X113518Y133203D01*
X98167Y132988D02*
X97667Y133488D01*
X96667D01*
X96167Y132988D01*
Y130989D01*
X96667Y130489D01*
X97667D01*
X98167Y130989D01*
X101166Y130489D02*
X99167D01*
X101166Y132488D01*
Y132988D01*
X100666Y133488D01*
X99666D01*
X99167Y132988D01*
X102165Y130489D02*
X103165D01*
X102665D01*
Y133488D01*
X102165Y132988D01*
X272660Y84304D02*
X270661Y82971D01*
X272660D02*
X270661Y84304D01*
Y80972D02*
Y82305D01*
X271994Y80972D01*
X272327D01*
X272660Y81305D01*
Y81971D01*
X272327Y82305D01*
X90755Y109153D02*
Y106654D01*
X91255Y106154D01*
X92254D01*
X92754Y106654D01*
Y109153D01*
X93754D02*
X95753D01*
Y108653D01*
X93754Y106654D01*
Y106154D01*
X63316Y90239D02*
Y93238D01*
X64815D01*
X65315Y92738D01*
Y91739D01*
X64815Y91239D01*
X63316D01*
X64315D02*
X65315Y90239D01*
X66315Y90739D02*
X66815Y90239D01*
X67814D01*
X68314Y90739D01*
Y92738D01*
X67814Y93238D01*
X66815D01*
X66315Y92738D01*
Y92239D01*
X66815Y91739D01*
X68314D01*
X64208Y108384D02*
X63709Y108884D01*
X62709D01*
X62209Y108384D01*
Y106385D01*
X62709Y105885D01*
X63709D01*
X64208Y106385D01*
X65208Y105885D02*
X66208D01*
X65708D01*
Y108884D01*
X65208Y108384D01*
X69707Y108884D02*
X68707Y108384D01*
X67707Y107385D01*
Y106385D01*
X68207Y105885D01*
X69207D01*
X69707Y106385D01*
Y106885D01*
X69207Y107385D01*
X67707D01*
X248490Y98358D02*
X247990Y98858D01*
X246991D01*
X246491Y98358D01*
Y96359D01*
X246991Y95859D01*
X247990D01*
X248490Y96359D01*
X249490Y95859D02*
X250490D01*
X249990D01*
Y98858D01*
X249490Y98358D01*
X253989Y98858D02*
X251989D01*
Y97358D01*
X252989Y97858D01*
X253489D01*
X253989Y97358D01*
Y96359D01*
X253489Y95859D01*
X252489D01*
X251989Y96359D01*
X248954Y74254D02*
X248454Y74754D01*
X247454D01*
X246954Y74254D01*
Y72255D01*
X247454Y71755D01*
X248454D01*
X248954Y72255D01*
X249953Y71755D02*
X250953D01*
X250453D01*
Y74754D01*
X249953Y74254D01*
X253952Y71755D02*
Y74754D01*
X252452Y73255D01*
X254452D01*
X222500Y136300D02*
Y139299D01*
X224000D01*
X224499Y138799D01*
Y137800D01*
X224000Y137300D01*
X222500D01*
X225499Y136300D02*
X226499D01*
X225999D01*
Y139299D01*
X225499Y138799D01*
X227998D02*
X228498Y139299D01*
X229498D01*
X229998Y138799D01*
Y136800D01*
X229498Y136300D01*
X228498D01*
X227998Y136800D01*
Y138799D01*
X286762Y153689D02*
X286619Y153975D01*
X286333Y154260D01*
X286048Y154403D01*
X285477D01*
X285191Y154260D01*
X284905Y153975D01*
X284762Y153689D01*
X284620Y153261D01*
Y152546D01*
X284762Y152118D01*
X284905Y151832D01*
X285191Y151547D01*
X285477Y151404D01*
X286048D01*
X286333Y151547D01*
X286619Y151832D01*
X286762Y152118D01*
X289461Y153403D02*
X289319Y152975D01*
X289033Y152689D01*
X288604Y152546D01*
X288462D01*
X288033Y152689D01*
X287748Y152975D01*
X287605Y153403D01*
Y153546D01*
X287748Y153975D01*
X288033Y154260D01*
X288462Y154403D01*
X288604D01*
X289033Y154260D01*
X289319Y153975D01*
X289461Y153403D01*
Y152689D01*
X289319Y151975D01*
X289033Y151547D01*
X288604Y151404D01*
X288319D01*
X287890Y151547D01*
X287748Y151832D01*
X303762Y170189D02*
X303619Y170475D01*
X303333Y170760D01*
X303048Y170903D01*
X302477D01*
X302191Y170760D01*
X301905Y170475D01*
X301762Y170189D01*
X301620Y169761D01*
Y169046D01*
X301762Y168618D01*
X301905Y168332D01*
X302191Y168047D01*
X302477Y167904D01*
X303048D01*
X303333Y168047D01*
X303619Y168332D01*
X303762Y168618D01*
X306604Y170903D02*
X305176Y167904D01*
X304605Y170903D02*
X306604D01*
X4323Y133771D02*
Y136770D01*
X5823D01*
X6323Y136271D01*
Y135271D01*
X5823Y134771D01*
X4323D01*
X7322Y134271D02*
X7822Y133771D01*
X8822D01*
X9322Y134271D01*
Y136271D01*
X8822Y136770D01*
X7822D01*
X7322Y136271D01*
Y135771D01*
X7822Y135271D01*
X9322D01*
X4859Y202766D02*
Y205765D01*
X6359D01*
X6859Y205265D01*
Y204265D01*
X6359Y203766D01*
X4859D01*
X7858Y205265D02*
X8358Y205765D01*
X9358D01*
X9858Y205265D01*
Y204765D01*
X9358Y204265D01*
X9858Y203766D01*
Y203266D01*
X9358Y202766D01*
X8358D01*
X7858Y203266D01*
Y203766D01*
X8358Y204265D01*
X7858Y204765D01*
Y205265D01*
X8358Y204265D02*
X9358D01*
X256429Y33893D02*
X257143Y30894D01*
X257857Y33893D02*
X257143Y30894D01*
X257857Y33893D02*
X258572Y30894D01*
X259286Y33893D02*
X258572Y30894D01*
X259886Y33893D02*
Y30894D01*
X261885Y33893D02*
X259886Y31893D01*
X260600Y32607D02*
X261885Y30894D01*
X262556Y33893D02*
Y31751D01*
X262699Y31322D01*
X262985Y31036D01*
X263413Y30894D01*
X263699D01*
X264127Y31036D01*
X264413Y31322D01*
X264556Y31751D01*
Y33893D01*
X265384Y32322D02*
X266670D01*
X267098Y32465D01*
X267241Y32607D01*
X267384Y32893D01*
Y33322D01*
X267241Y33607D01*
X267098Y33750D01*
X266670Y33893D01*
X265384D01*
Y30894D01*
X216731Y33893D02*
Y30894D01*
Y33893D02*
X218017D01*
X218445Y33750D01*
X218588Y33607D01*
X218731Y33322D01*
Y33036D01*
X218588Y32750D01*
X218445Y32607D01*
X218017Y32465D01*
X216731D01*
X217731D02*
X218731Y30894D01*
X221259Y33893D02*
X219402D01*
Y30894D01*
X221259D01*
X219402Y32465D02*
X220545D01*
X223758Y33465D02*
X223472Y33750D01*
X223044Y33893D01*
X222473D01*
X222044Y33750D01*
X221759Y33465D01*
Y33179D01*
X221901Y32893D01*
X222044Y32750D01*
X222330Y32607D01*
X223187Y32322D01*
X223472Y32179D01*
X223615Y32036D01*
X223758Y31751D01*
Y31322D01*
X223472Y31036D01*
X223044Y30894D01*
X222473D01*
X222044Y31036D01*
X221759Y31322D01*
X226286Y33893D02*
X224429D01*
Y30894D01*
X226286D01*
X224429Y32465D02*
X225572D01*
X227786Y33893D02*
Y30894D01*
X226786Y33893D02*
X228786D01*
X178993D02*
Y30894D01*
X180993Y33893D02*
X178993Y31893D01*
X179707Y32607D02*
X180993Y30894D01*
X183521Y33893D02*
X181664D01*
Y30894D01*
X183521D01*
X181664Y32465D02*
X182807D01*
X184021Y33893D02*
X185163Y32465D01*
Y30894D01*
X186306Y33893D02*
X185163Y32465D01*
X186834Y33179D02*
Y33322D01*
X186977Y33607D01*
X187120Y33750D01*
X187406Y33893D01*
X187977D01*
X188263Y33750D01*
X188405Y33607D01*
X188548Y33322D01*
Y33036D01*
X188405Y32750D01*
X188120Y32322D01*
X186691Y30894D01*
X188691D01*
X140610Y33893D02*
Y30894D01*
X142609Y33893D02*
X140610Y31893D01*
X141324Y32607D02*
X142609Y30894D01*
X145137Y33893D02*
X143280D01*
Y30894D01*
X145137D01*
X143280Y32465D02*
X144423D01*
X145637Y33893D02*
X146780Y32465D01*
Y30894D01*
X147922Y33893D02*
X146780Y32465D01*
X148308Y33322D02*
X148594Y33465D01*
X149022Y33893D01*
Y30894D01*
X235330Y74082D02*
X232331Y72082D01*
X235330D02*
X232331Y74082D01*
X234759Y71411D02*
X234902Y71126D01*
X235330Y70697D01*
X232331D01*
X37445Y29422D02*
Y27279D01*
X37588Y26851D01*
X37874Y26565D01*
X38302Y26422D01*
X38588D01*
X39016Y26565D01*
X39302Y26851D01*
X39445Y27279D01*
Y29422D01*
X42272Y28993D02*
X41987Y29279D01*
X41558Y29422D01*
X40987D01*
X40559Y29279D01*
X40273Y28993D01*
Y28708D01*
X40416Y28422D01*
X40559Y28279D01*
X40844Y28136D01*
X41701Y27851D01*
X41987Y27708D01*
X42130Y27565D01*
X42272Y27279D01*
Y26851D01*
X41987Y26565D01*
X41558Y26422D01*
X40987D01*
X40559Y26565D01*
X40273Y26851D01*
X42944Y29422D02*
Y26422D01*
Y29422D02*
X44229D01*
X44658Y29279D01*
X44801Y29136D01*
X44943Y28850D01*
Y28565D01*
X44801Y28279D01*
X44658Y28136D01*
X44229Y27994D01*
X42944D02*
X44229D01*
X44658Y27851D01*
X44801Y27708D01*
X44943Y27422D01*
Y26994D01*
X44801Y26708D01*
X44658Y26565D01*
X44229Y26422D01*
X42944D01*
X45615Y28850D02*
X45900Y28993D01*
X46329Y29422D01*
Y26422D01*
X75720Y30356D02*
Y28213D01*
X75862Y27785D01*
X76148Y27499D01*
X76577Y27356D01*
X76862D01*
X77291Y27499D01*
X77576Y27785D01*
X77719Y28213D01*
Y30356D01*
X78690Y29642D02*
Y29784D01*
X78833Y30070D01*
X78976Y30213D01*
X79262Y30356D01*
X79833D01*
X80119Y30213D01*
X80261Y30070D01*
X80404Y29784D01*
Y29499D01*
X80261Y29213D01*
X79976Y28784D01*
X78548Y27356D01*
X80547D01*
X222032Y98858D02*
Y95859D01*
Y98858D02*
X223317D01*
X223746Y98715D01*
X223889Y98572D01*
X224031Y98287D01*
Y98001D01*
X223889Y97716D01*
X223746Y97573D01*
X223317Y97430D01*
X222032D01*
X223032D02*
X224031Y95859D01*
X224703Y98287D02*
X224988Y98430D01*
X225417Y98858D01*
Y95859D01*
X227045Y98144D02*
Y98287D01*
X227188Y98572D01*
X227331Y98715D01*
X227616Y98858D01*
X228188D01*
X228473Y98715D01*
X228616Y98572D01*
X228759Y98287D01*
Y98001D01*
X228616Y97716D01*
X228331Y97287D01*
X226902Y95859D01*
X228902D01*
X261920Y187803D02*
Y184804D01*
Y187803D02*
X263205D01*
X263633Y187660D01*
X263776Y187517D01*
X263919Y187232D01*
Y186946D01*
X263776Y186661D01*
X263633Y186518D01*
X263205Y186375D01*
X261920D01*
X262919D02*
X263919Y184804D01*
X264591Y187232D02*
X264876Y187375D01*
X265305Y187803D01*
Y184804D01*
X266790Y187232D02*
X267076Y187375D01*
X267504Y187803D01*
Y184804D01*
X261920Y204303D02*
Y201304D01*
Y204303D02*
X263205D01*
X263633Y204160D01*
X263776Y204017D01*
X263919Y203732D01*
Y203446D01*
X263776Y203161D01*
X263633Y203018D01*
X263205Y202875D01*
X261920D01*
X262919D02*
X263919Y201304D01*
X264591Y203732D02*
X264876Y203875D01*
X265305Y204303D01*
Y201304D01*
X267647Y204303D02*
X267218Y204160D01*
X266933Y203732D01*
X266790Y203018D01*
Y202589D01*
X266933Y201875D01*
X267218Y201447D01*
X267647Y201304D01*
X267933D01*
X268361Y201447D01*
X268647Y201875D01*
X268790Y202589D01*
Y203018D01*
X268647Y203732D01*
X268361Y204160D01*
X267933Y204303D01*
X267647D01*
X97017Y47702D02*
Y44703D01*
Y47702D02*
X98302D01*
X98730Y47559D01*
X98873Y47417D01*
X99016Y47131D01*
Y46845D01*
X98873Y46560D01*
X98730Y46417D01*
X98302Y46274D01*
X97017D01*
X98016D02*
X99016Y44703D01*
X100402Y47702D02*
X99973Y47559D01*
X99830Y47274D01*
Y46988D01*
X99973Y46703D01*
X100259Y46560D01*
X100830Y46417D01*
X101259Y46274D01*
X101544Y45989D01*
X101687Y45703D01*
Y45274D01*
X101544Y44989D01*
X101401Y44846D01*
X100973Y44703D01*
X100402D01*
X99973Y44846D01*
X99830Y44989D01*
X99687Y45274D01*
Y45703D01*
X99830Y45989D01*
X100116Y46274D01*
X100544Y46417D01*
X101116Y46560D01*
X101401Y46703D01*
X101544Y46988D01*
Y47274D01*
X101401Y47559D01*
X100973Y47702D01*
X100402D01*
X82168D02*
Y44703D01*
Y47702D02*
X83454D01*
X83882Y47559D01*
X84025Y47417D01*
X84168Y47131D01*
Y46845D01*
X84025Y46560D01*
X83882Y46417D01*
X83454Y46274D01*
X82168D01*
X83168D02*
X84168Y44703D01*
X86839Y47702D02*
X85411Y44703D01*
X84839Y47702D02*
X86839D01*
X272491Y55886D02*
Y52887D01*
Y55886D02*
X273776D01*
X274204Y55743D01*
X274347Y55601D01*
X274490Y55315D01*
Y55029D01*
X274347Y54744D01*
X274204Y54601D01*
X273776Y54458D01*
X272491D01*
X273490D02*
X274490Y52887D01*
X276875Y55458D02*
X276732Y55743D01*
X276304Y55886D01*
X276018D01*
X275590Y55743D01*
X275304Y55315D01*
X275161Y54601D01*
Y53887D01*
X275304Y53316D01*
X275590Y53030D01*
X276018Y52887D01*
X276161D01*
X276590Y53030D01*
X276875Y53316D01*
X277018Y53744D01*
Y53887D01*
X276875Y54315D01*
X276590Y54601D01*
X276161Y54744D01*
X276018D01*
X275590Y54601D01*
X275304Y54315D01*
X275161Y53887D01*
X285627Y55886D02*
Y52887D01*
Y55886D02*
X286913D01*
X287341Y55743D01*
X287484Y55601D01*
X287627Y55315D01*
Y55029D01*
X287484Y54744D01*
X287341Y54601D01*
X286913Y54458D01*
X285627D01*
X286627D02*
X287627Y52887D01*
X290012Y55886D02*
X288584D01*
X288441Y54601D01*
X288584Y54744D01*
X289012Y54887D01*
X289441D01*
X289869Y54744D01*
X290155Y54458D01*
X290298Y54030D01*
Y53744D01*
X290155Y53316D01*
X289869Y53030D01*
X289441Y52887D01*
X289012D01*
X288584Y53030D01*
X288441Y53173D01*
X288298Y53458D01*
X113020Y23003D02*
Y20004D01*
Y23003D02*
X114305D01*
X114734Y22860D01*
X114876Y22717D01*
X115019Y22432D01*
Y22146D01*
X114876Y21861D01*
X114734Y21718D01*
X114305Y21575D01*
X113020D01*
X114019D02*
X115019Y20004D01*
X117119Y23003D02*
X115691Y21004D01*
X117833D01*
X117119Y23003D02*
Y20004D01*
X108520Y77736D02*
Y74737D01*
Y77736D02*
X109805D01*
X110233Y77594D01*
X110376Y77451D01*
X110519Y77165D01*
Y76880D01*
X110376Y76594D01*
X110233Y76451D01*
X109805Y76308D01*
X108520D01*
X109519D02*
X110519Y74737D01*
X111476Y77736D02*
X113047D01*
X112190Y76594D01*
X112619D01*
X112904Y76451D01*
X113047Y76308D01*
X113190Y75880D01*
Y75594D01*
X113047Y75165D01*
X112762Y74880D01*
X112333Y74737D01*
X111905D01*
X111476Y74880D01*
X111333Y75023D01*
X111190Y75308D01*
X90935Y77736D02*
Y74737D01*
Y77736D02*
X92221D01*
X92649Y77594D01*
X92792Y77451D01*
X92935Y77165D01*
Y76880D01*
X92792Y76594D01*
X92649Y76451D01*
X92221Y76308D01*
X90935D01*
X91935D02*
X92935Y74737D01*
X93749Y77022D02*
Y77165D01*
X93892Y77451D01*
X94035Y77594D01*
X94320Y77736D01*
X94892D01*
X95177Y77594D01*
X95320Y77451D01*
X95463Y77165D01*
Y76880D01*
X95320Y76594D01*
X95035Y76165D01*
X93606Y74737D01*
X95606D01*
X75070Y77736D02*
Y74737D01*
Y77736D02*
X76355D01*
X76784Y77594D01*
X76926Y77451D01*
X77069Y77165D01*
Y76880D01*
X76926Y76594D01*
X76784Y76451D01*
X76355Y76308D01*
X75070D01*
X76069D02*
X77069Y74737D01*
X77741Y77165D02*
X78026Y77308D01*
X78455Y77736D01*
Y74737D01*
X303246Y56172D02*
X302960Y56029D01*
X302675Y55743D01*
X302532Y55458D01*
X302389Y55029D01*
Y54315D01*
X302532Y53887D01*
X302675Y53601D01*
X302960Y53316D01*
X303246Y53173D01*
X303818D01*
X304103Y53316D01*
X304389Y53601D01*
X304532Y53887D01*
X304674Y54315D01*
Y55029D01*
X304532Y55458D01*
X304389Y55743D01*
X304103Y56029D01*
X303818Y56172D01*
X303246D01*
X303675Y53744D02*
X304532Y52887D01*
X305374Y55601D02*
X305660Y55743D01*
X306088Y56172D01*
Y53173D01*
X46402Y204932D02*
X47687D01*
X48115Y205075D01*
X48258Y205218D01*
X48401Y205503D01*
Y205932D01*
X48258Y206218D01*
X48115Y206360D01*
X47687Y206503D01*
X46402D01*
Y203504D01*
X51072Y206503D02*
X49644Y203504D01*
X49072Y206503D02*
X51072D01*
X30820Y114732D02*
X32105D01*
X32533Y114875D01*
X32676Y115018D01*
X32819Y115303D01*
Y115732D01*
X32676Y116017D01*
X32533Y116160D01*
X32105Y116303D01*
X30820D01*
Y113304D01*
X35204Y116303D02*
X33776D01*
X33633Y115018D01*
X33776Y115161D01*
X34205Y115303D01*
X34633D01*
X35061Y115161D01*
X35347Y114875D01*
X35490Y114446D01*
Y114161D01*
X35347Y113732D01*
X35061Y113447D01*
X34633Y113304D01*
X34205D01*
X33776Y113447D01*
X33633Y113590D01*
X33490Y113875D01*
X30020Y204732D02*
X31305D01*
X31734Y204875D01*
X31876Y205018D01*
X32019Y205303D01*
Y205732D01*
X31876Y206017D01*
X31734Y206160D01*
X31305Y206303D01*
X30020D01*
Y203304D01*
X34119Y206303D02*
X32691Y204304D01*
X34833D01*
X34119Y206303D02*
Y203304D01*
X114703Y231011D02*
X115988D01*
X116417Y231154D01*
X116560Y231297D01*
X116702Y231582D01*
Y232011D01*
X116560Y232296D01*
X116417Y232439D01*
X115988Y232582D01*
X114703D01*
Y229583D01*
X117659Y232582D02*
X119230D01*
X118373Y231439D01*
X118802D01*
X119088Y231297D01*
X119230Y231154D01*
X119373Y230725D01*
Y230440D01*
X119230Y230011D01*
X118945Y229726D01*
X118516Y229583D01*
X118088D01*
X117659Y229726D01*
X117516Y229868D01*
X117374Y230154D01*
X34260Y63665D02*
X35545D01*
X35974Y63807D01*
X36116Y63950D01*
X36259Y64236D01*
Y64664D01*
X36116Y64950D01*
X35974Y65093D01*
X35545Y65236D01*
X34260D01*
Y62236D01*
X36931Y64664D02*
X37216Y64807D01*
X37645Y65236D01*
Y62236D01*
X107854Y62524D02*
Y59524D01*
X109568D01*
X111753Y62524D02*
X109897D01*
Y59524D01*
X111753D01*
X109897Y61095D02*
X111039D01*
X112253Y62524D02*
Y59524D01*
Y62524D02*
X113253D01*
X113682Y62381D01*
X113967Y62095D01*
X114110Y61810D01*
X114253Y61381D01*
Y60667D01*
X114110Y60238D01*
X113967Y59953D01*
X113682Y59667D01*
X113253Y59524D01*
X112253D01*
X115210Y62524D02*
X116781D01*
X115924Y61381D01*
X116352D01*
X116638Y61238D01*
X116781Y61095D01*
X116924Y60667D01*
Y60381D01*
X116781Y59953D01*
X116495Y59667D01*
X116067Y59524D01*
X115638D01*
X115210Y59667D01*
X115067Y59810D01*
X114924Y60096D01*
X89806Y62524D02*
Y59524D01*
X91520D01*
X93705Y62524D02*
X91849D01*
Y59524D01*
X93705D01*
X91849Y61095D02*
X92991D01*
X94205Y62524D02*
Y59524D01*
Y62524D02*
X95205D01*
X95634Y62381D01*
X95919Y62095D01*
X96062Y61810D01*
X96205Y61381D01*
Y60667D01*
X96062Y60238D01*
X95919Y59953D01*
X95634Y59667D01*
X95205Y59524D01*
X94205D01*
X97019Y61810D02*
Y61952D01*
X97162Y62238D01*
X97305Y62381D01*
X97590Y62524D01*
X98162D01*
X98447Y62381D01*
X98590Y62238D01*
X98733Y61952D01*
Y61667D01*
X98590Y61381D01*
X98304Y60953D01*
X96876Y59524D01*
X98876D01*
X71758Y62524D02*
Y59524D01*
X73472D01*
X75657Y62524D02*
X73801D01*
Y59524D01*
X75657D01*
X73801Y61095D02*
X74943D01*
X76157Y62524D02*
Y59524D01*
Y62524D02*
X77157D01*
X77586Y62381D01*
X77871Y62095D01*
X78014Y61810D01*
X78157Y61381D01*
Y60667D01*
X78014Y60238D01*
X77871Y59953D01*
X77586Y59667D01*
X77157Y59524D01*
X76157D01*
X78828Y61952D02*
X79114Y62095D01*
X79542Y62524D01*
Y59524D01*
X266320Y105703D02*
Y102704D01*
Y105703D02*
X267319D01*
X267748Y105560D01*
X268034Y105275D01*
X268176Y104989D01*
X268319Y104560D01*
Y103846D01*
X268176Y103418D01*
X268034Y103132D01*
X267748Y102847D01*
X267319Y102704D01*
X266320D01*
X268990Y105132D02*
X269276Y105275D01*
X269705Y105703D01*
Y102704D01*
X264062Y153689D02*
X263919Y153975D01*
X263633Y154260D01*
X263348Y154403D01*
X262777D01*
X262491Y154260D01*
X262205Y153975D01*
X262062Y153689D01*
X261920Y153261D01*
Y152546D01*
X262062Y152118D01*
X262205Y151832D01*
X262491Y151547D01*
X262777Y151404D01*
X263348D01*
X263633Y151547D01*
X263919Y151832D01*
X264062Y152118D01*
X265619Y154403D02*
X265190Y154260D01*
X265048Y153975D01*
Y153689D01*
X265190Y153403D01*
X265476Y153261D01*
X266047Y153118D01*
X266476Y152975D01*
X266761Y152689D01*
X266904Y152404D01*
Y151975D01*
X266761Y151690D01*
X266619Y151547D01*
X266190Y151404D01*
X265619D01*
X265190Y151547D01*
X265048Y151690D01*
X264905Y151975D01*
Y152404D01*
X265048Y152689D01*
X265333Y152975D01*
X265762Y153118D01*
X266333Y153261D01*
X266619Y153403D01*
X266761Y153689D01*
Y153975D01*
X266619Y154260D01*
X266190Y154403D01*
X265619D01*
X61662Y77022D02*
X61519Y77308D01*
X61234Y77594D01*
X60948Y77736D01*
X60377D01*
X60091Y77594D01*
X59805Y77308D01*
X59662Y77022D01*
X59520Y76594D01*
Y75880D01*
X59662Y75451D01*
X59805Y75165D01*
X60091Y74880D01*
X60377Y74737D01*
X60948D01*
X61234Y74880D01*
X61519Y75165D01*
X61662Y75451D01*
X63933Y77736D02*
X62505Y75737D01*
X64647D01*
X63933Y77736D02*
Y74737D01*
X61662Y52088D02*
X61519Y52374D01*
X61234Y52660D01*
X60948Y52803D01*
X60377D01*
X60091Y52660D01*
X59805Y52374D01*
X59662Y52088D01*
X59520Y51660D01*
Y50946D01*
X59662Y50517D01*
X59805Y50232D01*
X60091Y49946D01*
X60377Y49803D01*
X60948D01*
X61234Y49946D01*
X61519Y50232D01*
X61662Y50517D01*
X62790Y52803D02*
X64361D01*
X63504Y51660D01*
X63933D01*
X64219Y51517D01*
X64361Y51374D01*
X64504Y50946D01*
Y50660D01*
X64361Y50232D01*
X64076Y49946D01*
X63647Y49803D01*
X63219D01*
X62790Y49946D01*
X62647Y50089D01*
X62505Y50375D01*
X206762Y98144D02*
X206619Y98430D01*
X206333Y98715D01*
X206048Y98858D01*
X205477D01*
X205191Y98715D01*
X204905Y98430D01*
X204762Y98144D01*
X204620Y97716D01*
Y97001D01*
X204762Y96573D01*
X204905Y96287D01*
X205191Y96002D01*
X205477Y95859D01*
X206048D01*
X206333Y96002D01*
X206619Y96287D01*
X206762Y96573D01*
X207605Y98287D02*
X207890Y98430D01*
X208319Y98858D01*
Y95859D01*
X210090Y98858D02*
X211661D01*
X210804Y97716D01*
X211232D01*
X211518Y97573D01*
X211661Y97430D01*
X211804Y97001D01*
Y96716D01*
X211661Y96287D01*
X211375Y96002D01*
X210947Y95859D01*
X210518D01*
X210090Y96002D01*
X209947Y96144D01*
X209804Y96430D01*
X207462Y74040D02*
X207319Y74326D01*
X207033Y74612D01*
X206748Y74754D01*
X206177D01*
X205891Y74612D01*
X205605Y74326D01*
X205462Y74040D01*
X205320Y73612D01*
Y72898D01*
X205462Y72469D01*
X205605Y72183D01*
X205891Y71898D01*
X206177Y71755D01*
X206748D01*
X207033Y71898D01*
X207319Y72183D01*
X207462Y72469D01*
X208305Y74183D02*
X208590Y74326D01*
X209019Y74754D01*
Y71755D01*
X210647Y74040D02*
Y74183D01*
X210790Y74469D01*
X210933Y74612D01*
X211218Y74754D01*
X211790D01*
X212075Y74612D01*
X212218Y74469D01*
X212361Y74183D01*
Y73897D01*
X212218Y73612D01*
X211932Y73183D01*
X210504Y71755D01*
X212504D01*
X286762Y170189D02*
X286619Y170475D01*
X286333Y170760D01*
X286048Y170903D01*
X285477D01*
X285191Y170760D01*
X284905Y170475D01*
X284762Y170189D01*
X284620Y169761D01*
Y169046D01*
X284762Y168618D01*
X284905Y168332D01*
X285191Y168047D01*
X285477Y167904D01*
X286048D01*
X286333Y168047D01*
X286619Y168332D01*
X286762Y168618D01*
X289319Y170475D02*
X289176Y170760D01*
X288747Y170903D01*
X288462D01*
X288033Y170760D01*
X287748Y170332D01*
X287605Y169618D01*
Y168904D01*
X287748Y168332D01*
X288033Y168047D01*
X288462Y167904D01*
X288604D01*
X289033Y168047D01*
X289319Y168332D01*
X289461Y168761D01*
Y168904D01*
X289319Y169332D01*
X289033Y169618D01*
X288604Y169761D01*
X288462D01*
X288033Y169618D01*
X287748Y169332D01*
X287605Y168904D01*
X264062Y172089D02*
X263919Y172375D01*
X263633Y172660D01*
X263348Y172803D01*
X262777D01*
X262491Y172660D01*
X262205Y172375D01*
X262062Y172089D01*
X261920Y171660D01*
Y170946D01*
X262062Y170518D01*
X262205Y170232D01*
X262491Y169947D01*
X262777Y169804D01*
X263348D01*
X263633Y169947D01*
X263919Y170232D01*
X264062Y170518D01*
X266619Y172803D02*
X265190D01*
X265048Y171518D01*
X265190Y171660D01*
X265619Y171803D01*
X266047D01*
X266476Y171660D01*
X266761Y171375D01*
X266904Y170946D01*
Y170661D01*
X266761Y170232D01*
X266476Y169947D01*
X266047Y169804D01*
X265619D01*
X265190Y169947D01*
X265048Y170089D01*
X264905Y170375D01*
X303762Y153689D02*
X303619Y153975D01*
X303333Y154260D01*
X303048Y154403D01*
X302477D01*
X302191Y154260D01*
X301905Y153975D01*
X301762Y153689D01*
X301620Y153261D01*
Y152546D01*
X301762Y152118D01*
X301905Y151832D01*
X302191Y151547D01*
X302477Y151404D01*
X303048D01*
X303333Y151547D01*
X303619Y151832D01*
X303762Y152118D01*
X304605Y153832D02*
X304890Y153975D01*
X305319Y154403D01*
Y151404D01*
X307661Y154403D02*
X307233Y154260D01*
X306947Y153832D01*
X306804Y153118D01*
Y152689D01*
X306947Y151975D01*
X307233Y151547D01*
X307661Y151404D01*
X307947D01*
X308375Y151547D01*
X308661Y151975D01*
X308804Y152689D01*
Y153118D01*
X308661Y153832D01*
X308375Y154260D01*
X307947Y154403D01*
X307661D01*
X114007Y46988D02*
X113864Y47274D01*
X113579Y47559D01*
X113293Y47702D01*
X112722D01*
X112436Y47559D01*
X112150Y47274D01*
X112008Y46988D01*
X111865Y46560D01*
Y45846D01*
X112008Y45417D01*
X112150Y45131D01*
X112436Y44846D01*
X112722Y44703D01*
X113293D01*
X113579Y44846D01*
X113864Y45131D01*
X114007Y45417D01*
X114850Y47131D02*
X115136Y47274D01*
X115564Y47702D01*
Y44703D01*
X117049Y47131D02*
X117335Y47274D01*
X117763Y47702D01*
Y44703D01*
X51684Y77022D02*
X51541Y77308D01*
X51255Y77594D01*
X50970Y77736D01*
X50398D01*
X50113Y77594D01*
X49827Y77308D01*
X49684Y77022D01*
X49541Y76594D01*
Y75880D01*
X49684Y75451D01*
X49827Y75165D01*
X50113Y74880D01*
X50398Y74737D01*
X50970D01*
X51255Y74880D01*
X51541Y75165D01*
X51684Y75451D01*
X52669Y77022D02*
Y77165D01*
X52812Y77451D01*
X52955Y77594D01*
X53241Y77736D01*
X53812D01*
X54098Y77594D01*
X54240Y77451D01*
X54383Y77165D01*
Y76880D01*
X54240Y76594D01*
X53955Y76165D01*
X52526Y74737D01*
X54526D01*
X51974Y52088D02*
X51831Y52374D01*
X51546Y52660D01*
X51260Y52803D01*
X50689D01*
X50403Y52660D01*
X50117Y52374D01*
X49975Y52088D01*
X49832Y51660D01*
Y50946D01*
X49975Y50517D01*
X50117Y50232D01*
X50403Y49946D01*
X50689Y49803D01*
X51260D01*
X51546Y49946D01*
X51831Y50232D01*
X51974Y50517D01*
X52817Y52231D02*
X53103Y52374D01*
X53531Y52803D01*
Y49803D01*
X274020Y105203D02*
Y102204D01*
Y105203D02*
X275305D01*
X275733Y105060D01*
X275876Y104918D01*
X276019Y104632D01*
Y104346D01*
X275876Y104060D01*
X275733Y103918D01*
X275305Y103775D01*
X274020D02*
X275305D01*
X275733Y103632D01*
X275876Y103489D01*
X276019Y103204D01*
Y102775D01*
X275876Y102489D01*
X275733Y102347D01*
X275305Y102204D01*
X274020D01*
X276691Y105203D02*
Y103061D01*
X276833Y102632D01*
X277119Y102347D01*
X277547Y102204D01*
X277833D01*
X278261Y102347D01*
X278547Y102632D01*
X278690Y103061D01*
Y105203D01*
X281518D02*
X279518Y102204D01*
Y105203D02*
X281518D01*
X279518Y102204D02*
X281518D01*
X284189Y105203D02*
X282189Y102204D01*
Y105203D02*
X284189D01*
X282189Y102204D02*
X284189D01*
X286717Y105203D02*
X284860D01*
Y102204D01*
X286717D01*
X284860Y103775D02*
X286003D01*
X287217Y105203D02*
Y102204D01*
Y105203D02*
X288502D01*
X288931Y105060D01*
X289073Y104918D01*
X289216Y104632D01*
Y104346D01*
X289073Y104060D01*
X288931Y103918D01*
X288502Y103775D01*
X287217D01*
X288217D02*
X289216Y102204D01*
X289888Y104632D02*
X290173Y104775D01*
X290602Y105203D01*
Y102204D01*
X290335Y204332D02*
Y201333D01*
Y204332D02*
X291620D01*
X292049Y204190D01*
X292192Y204047D01*
X292334Y203761D01*
Y203475D01*
X292192Y203190D01*
X292049Y203047D01*
X291620Y202904D01*
X290335D02*
X291620D01*
X292049Y202761D01*
X292192Y202619D01*
X292334Y202333D01*
Y201904D01*
X292192Y201619D01*
X292049Y201476D01*
X291620Y201333D01*
X290335D01*
X293863Y204332D02*
X293577Y204190D01*
X293291Y203904D01*
X293148Y203618D01*
X293006Y203190D01*
Y202476D01*
X293148Y202047D01*
X293291Y201762D01*
X293577Y201476D01*
X293863Y201333D01*
X294434D01*
X294720Y201476D01*
X295005Y201762D01*
X295148Y202047D01*
X295291Y202476D01*
Y203190D01*
X295148Y203618D01*
X295005Y203904D01*
X294720Y204190D01*
X294434Y204332D01*
X293863D01*
X296848D02*
X296562Y204190D01*
X296276Y203904D01*
X296134Y203618D01*
X295991Y203190D01*
Y202476D01*
X296134Y202047D01*
X296276Y201762D01*
X296562Y201476D01*
X296848Y201333D01*
X297419D01*
X297705Y201476D01*
X297990Y201762D01*
X298133Y202047D01*
X298276Y202476D01*
Y203190D01*
X298133Y203618D01*
X297990Y203904D01*
X297705Y204190D01*
X297419Y204332D01*
X296848D01*
X299976D02*
Y201333D01*
X298976Y204332D02*
X300975D01*
X301332Y203761D02*
X301618Y203904D01*
X302047Y204332D01*
Y201333D01*
X201307Y138244D02*
Y140618D01*
X111937Y138244D02*
Y140606D01*
Y138244D02*
X112331Y137850D01*
X200913D01*
X201307Y138244D01*
X200925Y141000D02*
X201307Y140618D01*
X112331Y141000D02*
X200925D01*
X111937Y140606D02*
X112331Y141000D01*
M02*
