M48
;Layer_Color=9474304
;FILE_FORMAT=2:5
INCH,TZ
;TYPE=PLATED
T1F00S00C0.01000
T2F00S00C0.01200
T4F00S00C0.03150
T5F00S00C0.03189
T6F00S00C0.03504
T7F00S00C0.03543
T8F00S00C0.04724
T9F00S00C0.12598
%
T01
X48961Y15067
X54079
X51520Y23778
X93420Y42704
X97420Y49004
X104620Y46404
X104589Y42704
X118820Y56504
X133220Y52000
X138111Y46904
X142720Y48004
X134709Y26793
X156793Y38947
X168827Y45195
X200202Y36804
X216720Y34157
X216121Y28000
X224609Y32000
X214420Y44703
X201058Y58797
X184247Y16792
X247073Y44703
X243420Y60853
X241681Y73622
X256764Y69992
X275320Y72504
X277741Y78382
X283778Y75660
X268520Y87604
X288181Y104204
X234000Y97804
X217020Y76492
X196720Y71622
X198748Y64333
X185120Y69513
X186420Y75104
X189920
X186420Y84897
X185120Y92804
X189819Y90803
X194120Y95104
X180020Y96704
X172000Y84604
X174520Y78992
X174620Y71104
X172420Y68704
X171858Y73104
X167858Y69842
X163020Y73004
X158984Y69304
X155047Y64673
X166563Y77402
X160953Y91604
X158920Y96104
X157020Y109004
X161921Y110904
X159020Y114904
X200202Y121204
X199120Y133104
X207920Y145704
X214220Y156904
X220320Y161119
X191320Y156904
Y172704
X185855Y172804
X165820Y188304
X155520Y187904
X264903Y189804
X264920Y174904
X201920Y105976
X153220Y113004
X147173Y109150
X138120Y110704
X140420Y103004
X141420Y92771
X144420Y91065
X148963Y96836
X154861Y96032
X130920Y96304
X130226Y90803
X130420Y79804
X125220Y76104
X130920Y71204
X128720Y64504
X147220Y63304
X144146Y70110
X148000Y73823
X129320Y107004
X125818Y119305
X91620Y120204
X77339Y115504
X67339Y115704
X82339Y132904
X72339Y155803
X63316Y170104
X57120Y145236
X46520Y91092
X99279Y98952
X110000Y100000
X109120Y91704
X106508Y89092
X97420Y66004
X91317Y59901
X117673Y170104
X125220Y172704
X122420Y187904
X127981Y187965
X143920Y187904
X152784Y172704
T02
X56638Y12704
X80020Y49604
X91533Y39290
X98620Y32340
X113024Y26185
X119720Y39404
X204126Y24204
X313020Y33020
Y139076
X213120Y177904
X199620Y90920
X189920Y98804
X168827Y94104
X174615Y86866
X170820Y63204
X203620Y62004
X139220Y99204
X121718Y112804
X116520Y115704
X87339Y117631
X87420Y107314
X70871Y107004
X57120Y66904
X86553Y180370
X97120Y176704
X99386Y185504
X92720Y194139
X116957Y187904
T04
X10056Y10898
X16737Y8131
X23419Y10898
X26186Y17579
X23418Y24261
X16737Y27028
X10056Y24261
X7288Y17579
X290335Y16174
X293102Y9493
X299784Y6726
X306465Y9493
X309233Y16174
X306465Y22856
X299784Y25623
X293102Y22856
Y215027
X299784Y212260
X306465Y215027
X23000Y215555
X16319Y212787
X9638Y215555
X6870Y222236
X9638Y228918
X16319Y231685
X23000Y228918
X25768Y222236
X290335Y221709
X293102Y228390
X299784Y231157
X306465Y228390
X309233Y221709
T05
X30520Y46236
Y56236
X35760Y75236
Y85236
Y95236
Y105236
X7961Y105236
Y95236
Y85236
Y75236
Y115236
Y125236
Y145252
Y155252
Y165252
Y175252
Y185252
Y195252
X34878
Y185252
Y175252
Y165252
Y155252
Y145252
T06
X128000Y225636
X138000Y225616
X148000
X158000Y225646
X167990Y225626
X177990
X187990Y225616
T07
X228181Y117300
Y127300
X238181
Y117300
X248181
Y127300
X258181
Y117300
X268181
Y127300
X278181
Y117300
X288181
Y127300
X298181
X308181
Y117300
X298181
T08
X288074Y183236
X298074
X308074
Y193236
X298074
X288074
T09
X16686Y17579
X299732Y16174
X16268Y222236
X299732Y221709
M30
