G04*
G04 #@! TF.GenerationSoftware,Altium Limited,Altium Designer,18.1.9 (240)*
G04*
G04 Layer_Color=128*
%FSLAX25Y25*%
%MOIN*%
G70*
G01*
G75*
%ADD10C,0.01000*%
%ADD18C,0.00600*%
%ADD98C,0.00200*%
D10*
X299720Y1236D02*
G03*
X315480Y16978I9J15751D01*
G01*
X315480Y221709D02*
G03*
X299720Y237457I-15754J-6D01*
G01*
X16319D02*
G03*
X520Y221709I-26J-15774D01*
G01*
X520Y16937D02*
G03*
X16268Y1236I15725J23D01*
G01*
X520Y16937D02*
Y221709D01*
X16319Y237457D02*
X299720D01*
X315480Y16978D02*
Y222236D01*
X16268Y1236D02*
X299720D01*
D18*
X201307Y138244D02*
Y140618D01*
X111937Y138244D02*
Y140606D01*
Y138244D02*
X112331Y137850D01*
X200913D01*
X201307Y138244D01*
X200925Y141000D02*
X201307Y140618D01*
X112331Y141000D02*
X200925D01*
X111937Y140606D02*
X112331Y141000D01*
D98*
X126248Y225636D02*
X129752D01*
X128000Y223884D02*
Y227388D01*
X136248Y225616D02*
X139752D01*
X138000Y223864D02*
Y227368D01*
X146248Y225616D02*
X149752D01*
X148000Y223864D02*
Y227368D01*
X156248Y225646D02*
X159752D01*
X158000Y223894D02*
Y227398D01*
X166238Y225626D02*
X169742D01*
X167990Y223874D02*
Y227378D01*
X176238Y225626D02*
X179742D01*
X177990Y223874D02*
Y227378D01*
X186238Y225616D02*
X189742D01*
X187990Y223864D02*
Y227368D01*
X10386Y17579D02*
X22985D01*
X16686Y11280D02*
Y23879D01*
X24611Y17579D02*
X27761D01*
X26186Y16005D02*
Y19154D01*
X21844Y10898D02*
X24993D01*
X23419Y9323D02*
Y12473D01*
X15162Y8131D02*
X18312D01*
X16737Y6556D02*
Y9705D01*
X8481Y10898D02*
X11631D01*
X10056Y9323D02*
Y12473D01*
X5713Y17579D02*
X8863D01*
X7288Y16005D02*
Y19154D01*
X8481Y24261D02*
X11631D01*
X10056Y22686D02*
Y25836D01*
X15162Y27028D02*
X18312D01*
X16737Y25453D02*
Y28603D01*
X21844Y24261D02*
X24993D01*
X23418Y22686D02*
Y25836D01*
X9968Y222236D02*
X22567D01*
X16268Y215937D02*
Y228535D01*
X24193Y222236D02*
X27343D01*
X25768Y220661D02*
Y223811D01*
X21426Y215555D02*
X24575D01*
X23000Y213980D02*
Y217130D01*
X14744Y212787D02*
X17894D01*
X16319Y211213D02*
Y214362D01*
X8063Y215555D02*
X11212D01*
X9638Y213980D02*
Y217130D01*
X5295Y222236D02*
X8445D01*
X6870Y220661D02*
Y223811D01*
X8063Y228918D02*
X11213D01*
X9638Y227343D02*
Y230492D01*
X14744Y231685D02*
X17894D01*
X16319Y230110D02*
Y233260D01*
X21425Y228918D02*
X24575D01*
X23000Y227343D02*
Y230492D01*
X293433Y16174D02*
X306031D01*
X299732Y9875D02*
Y22474D01*
X307658Y16174D02*
X310807D01*
X309233Y14600D02*
Y17749D01*
X304890Y9493D02*
X308040D01*
X306465Y7918D02*
Y11068D01*
X298209Y6726D02*
X301358D01*
X299784Y5151D02*
Y8300D01*
X291527Y9493D02*
X294677D01*
X293102Y7918D02*
Y11068D01*
X288760Y16174D02*
X291910D01*
X290335Y14600D02*
Y17749D01*
X291528Y22856D02*
X294677D01*
X293102Y21281D02*
Y24431D01*
X298209Y25623D02*
X301358D01*
X299784Y24048D02*
Y27198D01*
X304890Y22856D02*
X308040D01*
X306465Y21281D02*
Y24431D01*
X293433Y221709D02*
X306031D01*
X299732Y215409D02*
Y228008D01*
X307658Y221709D02*
X310807D01*
X309233Y220134D02*
Y223283D01*
X304890Y215027D02*
X308040D01*
X306465Y213452D02*
Y216602D01*
X298209Y212260D02*
X301359D01*
X299784Y210685D02*
Y213835D01*
X291528Y215027D02*
X294677D01*
X293102Y213452D02*
Y216602D01*
X288760Y221709D02*
X291910D01*
X290335Y220134D02*
Y223283D01*
X291528Y228390D02*
X294677D01*
X293102Y226815D02*
Y229965D01*
X298209Y231157D02*
X301359D01*
X299784Y229583D02*
Y232732D01*
X304890Y228390D02*
X308040D01*
X306465Y226815D02*
Y229965D01*
X64413Y7808D02*
X66776D01*
X65594Y6627D02*
Y8989D01*
X36264Y7808D02*
X38626D01*
X37445Y6627D02*
Y8989D01*
X36264Y21391D02*
X38626D01*
X37445Y20210D02*
Y22572D01*
X64413Y21391D02*
X66776D01*
X65594Y20210D02*
Y22572D01*
X58016Y16174D02*
X60772D01*
X59394Y14796D02*
Y17552D01*
X42268Y16174D02*
X45024D01*
X43646Y14796D02*
Y17552D01*
X28925Y46236D02*
X32114D01*
X30520Y44642D02*
Y47831D01*
X28925Y56236D02*
X32114D01*
X30520Y54642D02*
Y57831D01*
X33284Y195252D02*
X36473D01*
X34878Y193657D02*
Y196846D01*
X33284Y185252D02*
X36473D01*
X34878Y183657D02*
Y186846D01*
X33284Y175252D02*
X36473D01*
X34878Y173657D02*
Y176846D01*
X33284Y165252D02*
X36473D01*
X34878Y163657D02*
Y166846D01*
X33284Y155252D02*
X36473D01*
X34878Y153657D02*
Y156846D01*
X33284Y145252D02*
X36473D01*
X34878Y143657D02*
Y146846D01*
X6366Y75236D02*
X9555D01*
X7961Y73642D02*
Y76831D01*
X6366Y85236D02*
X9555D01*
X7961Y83642D02*
Y86831D01*
X6366Y95236D02*
X9555D01*
X7961Y93642D02*
Y96831D01*
X6366Y105236D02*
X9555D01*
X7961Y103642D02*
Y106831D01*
X6366Y115236D02*
X9555D01*
X7961Y113642D02*
Y116831D01*
X6366Y125236D02*
X9555D01*
X7961Y123642D02*
Y126831D01*
X6366Y195252D02*
X9555D01*
X7961Y193657D02*
Y196846D01*
X6366Y185252D02*
X9555D01*
X7961Y183657D02*
Y186846D01*
X6366Y175252D02*
X9555D01*
X7961Y173657D02*
Y176846D01*
X6366Y165252D02*
X9555D01*
X7961Y163657D02*
Y166846D01*
X6366Y155252D02*
X9555D01*
X7961Y153657D02*
Y156846D01*
X6366Y145252D02*
X9555D01*
X7961Y143657D02*
Y146846D01*
X34166Y105236D02*
X37355D01*
X35760Y103642D02*
Y106831D01*
X34166Y95236D02*
X37355D01*
X35760Y93642D02*
Y96831D01*
X34166Y85236D02*
X37355D01*
X35760Y83642D02*
Y86831D01*
X34166Y75236D02*
X37355D01*
X35760Y73642D02*
Y76831D01*
X305712Y193236D02*
X310436D01*
X308074Y190874D02*
Y195598D01*
X305712Y183236D02*
X310436D01*
X308074Y180874D02*
Y185598D01*
X295712Y193236D02*
X300436D01*
X298074Y190874D02*
Y195598D01*
X295712Y183236D02*
X300436D01*
X298074Y180874D02*
Y185598D01*
X285712Y193236D02*
X290436D01*
X288074Y190874D02*
Y195598D01*
X285712Y183236D02*
X290436D01*
X288074Y180874D02*
Y185598D01*
X306409Y127300D02*
X309952D01*
X308181Y125528D02*
Y129072D01*
X226409Y117300D02*
X229952D01*
X228181Y115528D02*
Y119072D01*
X226409Y127300D02*
X229952D01*
X228181Y125528D02*
Y129072D01*
X236409Y117300D02*
X239952D01*
X238181Y115528D02*
Y119072D01*
X236409Y127300D02*
X239952D01*
X238181Y125528D02*
Y129072D01*
X246409Y117300D02*
X249952D01*
X248181Y115528D02*
Y119072D01*
X246409Y127300D02*
X249952D01*
X248181Y125528D02*
Y129072D01*
X256409Y117300D02*
X259952D01*
X258181Y115528D02*
Y119072D01*
X256409Y127300D02*
X259952D01*
X258181Y125528D02*
Y129072D01*
X266409Y117300D02*
X269952D01*
X268181Y115528D02*
Y119072D01*
X266409Y127300D02*
X269952D01*
X268181Y125528D02*
Y129072D01*
X276409Y117300D02*
X279952D01*
X278181Y115528D02*
Y119072D01*
X276409Y127300D02*
X279952D01*
X278181Y125528D02*
Y129072D01*
X286409Y117300D02*
X289952D01*
X288181Y115528D02*
Y119072D01*
X286409Y127300D02*
X289952D01*
X288181Y125528D02*
Y129072D01*
X296409Y117300D02*
X299952D01*
X298181Y115528D02*
Y119072D01*
X296409Y127300D02*
X299952D01*
X298181Y125528D02*
Y129072D01*
X306409Y117300D02*
X309952D01*
X308181Y115528D02*
Y119072D01*
X66839Y115704D02*
X67839D01*
X67339Y115204D02*
Y116204D01*
X70271Y107004D02*
X71471D01*
X70871Y106404D02*
Y107604D01*
X56620Y145236D02*
X57620D01*
X57120Y144736D02*
Y145736D01*
X71839Y155803D02*
X72839D01*
X72339Y155303D02*
Y156303D01*
X62816Y170104D02*
X63816D01*
X63316Y169604D02*
Y170604D01*
X46020Y91092D02*
X47020D01*
X46520Y90592D02*
Y91592D01*
X109500Y100000D02*
X110500D01*
X110000Y99500D02*
Y100500D01*
X98779Y98952D02*
X99779D01*
X99279Y98452D02*
Y99452D01*
X86820Y107314D02*
X88020D01*
X87420Y106714D02*
Y107914D01*
X199702Y121204D02*
X200702D01*
X200202Y120704D02*
Y121704D01*
X201420Y105976D02*
X202420D01*
X201920Y105476D02*
Y106476D01*
X171500Y84604D02*
X172500D01*
X172000Y84104D02*
Y85104D01*
X168227Y94104D02*
X169427D01*
X168827Y93504D02*
Y94704D01*
X174015Y86866D02*
X175215D01*
X174615Y86266D02*
Y87466D01*
X174020Y78992D02*
X175020D01*
X174520Y78492D02*
Y79492D01*
X189420Y75104D02*
X190420D01*
X189920Y74604D02*
Y75604D01*
X196220Y71622D02*
X197220D01*
X196720Y71122D02*
Y72122D01*
X185920Y75104D02*
X186920D01*
X186420Y74604D02*
Y75604D01*
X185920Y84897D02*
X186920D01*
X186420Y84397D02*
Y85397D01*
X166063Y77402D02*
X167063D01*
X166563Y76902D02*
Y77902D01*
X171358Y73104D02*
X172358D01*
X171858Y72604D02*
Y73604D01*
X174120Y71104D02*
X175120D01*
X174620Y70604D02*
Y71604D01*
X162520Y73004D02*
X163520D01*
X163020Y72504D02*
Y73504D01*
X143646Y70110D02*
X144646D01*
X144146Y69610D02*
Y70610D01*
X147500Y73823D02*
X148500D01*
X148000Y73323D02*
Y74323D01*
X112424Y26185D02*
X113624D01*
X113024Y25585D02*
Y26785D01*
X98020Y32340D02*
X99220D01*
X98620Y31740D02*
Y32940D01*
X198620Y133104D02*
X199620D01*
X199120Y132604D02*
Y133604D01*
X312420Y33020D02*
X313620D01*
X313020Y32420D02*
Y33620D01*
X312420Y139076D02*
X313620D01*
X313020Y138476D02*
Y139676D01*
X56038Y12704D02*
X57238D01*
X56638Y12104D02*
Y13304D01*
X90933Y39290D02*
X92133D01*
X91533Y38690D02*
Y39890D01*
X119120Y39404D02*
X120320D01*
X119720Y38804D02*
Y40004D01*
X79420Y49604D02*
X80620D01*
X80020Y49004D02*
Y50204D01*
X138620Y99204D02*
X139820D01*
X139220Y98604D02*
Y99804D01*
X86739Y117631D02*
X87939D01*
X87339Y117031D02*
Y118231D01*
X92120Y194139D02*
X93320D01*
X92720Y193539D02*
Y194739D01*
X115920Y115704D02*
X117120D01*
X116520Y115104D02*
Y116304D01*
X121118Y112804D02*
X122318D01*
X121718Y112204D02*
Y113404D01*
X98786Y185504D02*
X99986D01*
X99386Y184904D02*
Y186104D01*
X116357Y187904D02*
X117557D01*
X116957Y187304D02*
Y188504D01*
X170220Y63204D02*
X171420D01*
X170820Y62604D02*
Y63804D01*
X203526Y24204D02*
X204726D01*
X204126Y23604D02*
Y24804D01*
X203020Y62004D02*
X204220D01*
X203620Y61404D02*
Y62604D01*
X199020Y90920D02*
X200220D01*
X199620Y90320D02*
Y91520D01*
X212520Y177904D02*
X213720D01*
X213120Y177304D02*
Y178504D01*
X200558Y58797D02*
X201558D01*
X201058Y58297D02*
Y59297D01*
X132720Y52000D02*
X133720D01*
X133220Y51500D02*
Y52500D01*
X213920Y44703D02*
X214920D01*
X214420Y44203D02*
Y45203D01*
X256264Y69992D02*
X257264D01*
X256764Y69492D02*
Y70492D01*
X233500Y97804D02*
X234500D01*
X234000Y97304D02*
Y98304D01*
X241181Y73622D02*
X242181D01*
X241681Y73122D02*
Y74122D01*
X137611Y46904D02*
X138611D01*
X138111Y46404D02*
Y47404D01*
X142220Y48004D02*
X143220D01*
X142720Y47504D02*
Y48504D01*
X156293Y38947D02*
X157293D01*
X156793Y38447D02*
Y39447D01*
X246573Y44703D02*
X247573D01*
X247073Y44203D02*
Y45203D01*
X199702Y36804D02*
X200702D01*
X200202Y36304D02*
Y37304D01*
X168327Y45195D02*
X169327D01*
X168827Y44695D02*
Y45695D01*
X216220Y34157D02*
X217220D01*
X216720Y33657D02*
Y34657D01*
X224109Y32000D02*
X225109D01*
X224609Y31500D02*
Y32500D01*
X215621Y28000D02*
X216621D01*
X216121Y27500D02*
Y28500D01*
X152720Y113004D02*
X153720D01*
X153220Y112504D02*
Y113504D01*
X264403Y189804D02*
X265403D01*
X264903Y189304D02*
Y190304D01*
X129920Y79804D02*
X130920D01*
X130420Y79304D02*
Y80304D01*
Y96304D02*
X131420D01*
X130920Y95804D02*
Y96804D01*
X148463Y96836D02*
X149463D01*
X148963Y96336D02*
Y97336D01*
X160453Y91604D02*
X161453D01*
X160953Y91104D02*
Y92104D01*
X128820Y107004D02*
X129820D01*
X129320Y106504D02*
Y107504D01*
X154361Y96032D02*
X155361D01*
X154861Y95532D02*
Y96532D01*
X146673Y109150D02*
X147673D01*
X147173Y108650D02*
Y109650D01*
X81839Y132904D02*
X82839D01*
X82339Y132404D02*
Y133404D01*
X183747Y16792D02*
X184747D01*
X184247Y16292D02*
Y17292D01*
X130420Y71204D02*
X131420D01*
X130920Y70704D02*
Y71704D01*
X118320Y56504D02*
X119320D01*
X118820Y56004D02*
Y57004D01*
X264420Y174904D02*
X265420D01*
X264920Y174404D02*
Y175404D01*
X90817Y59901D02*
X91817D01*
X91317Y59401D02*
Y60401D01*
X96920Y66004D02*
X97920D01*
X97420Y65504D02*
Y66504D01*
X193620Y95104D02*
X194620D01*
X194120Y94604D02*
Y95604D01*
X189319Y90803D02*
X190319D01*
X189819Y90303D02*
Y91303D01*
X125318Y119305D02*
X126318D01*
X125818Y118805D02*
Y119805D01*
X124720Y76104D02*
X125720D01*
X125220Y75604D02*
Y76604D01*
X152284Y172704D02*
X153284D01*
X152784Y172204D02*
Y173204D01*
X140920Y92771D02*
X141920D01*
X141420Y92271D02*
Y93271D01*
X96520Y176704D02*
X97720D01*
X97120Y176104D02*
Y177304D01*
X189320Y98804D02*
X190520D01*
X189920Y98204D02*
Y99404D01*
X161421Y110904D02*
X162421D01*
X161921Y110404D02*
Y111404D01*
X179520Y96704D02*
X180520D01*
X180020Y96204D02*
Y97204D01*
X207420Y145704D02*
X208420D01*
X207920Y145204D02*
Y146204D01*
X184620Y92804D02*
X185620D01*
X185120Y92304D02*
Y93304D01*
X283278Y75660D02*
X284278D01*
X283778Y75160D02*
Y76160D01*
X274820Y72504D02*
X275820D01*
X275320Y72004D02*
Y73004D01*
X158520Y114904D02*
X159520D01*
X159020Y114404D02*
Y115404D01*
X156520Y109004D02*
X157520D01*
X157020Y108504D02*
Y109504D01*
X139920Y103004D02*
X140920D01*
X140420Y102504D02*
Y103504D01*
X158420Y96104D02*
X159420D01*
X158920Y95604D02*
Y96604D01*
X198248Y64333D02*
X199248D01*
X198748Y63833D02*
Y64833D01*
X146720Y63304D02*
X147720D01*
X147220Y62804D02*
Y63804D01*
X184620Y69513D02*
X185620D01*
X185120Y69013D02*
Y70013D01*
X242920Y60853D02*
X243920D01*
X243420Y60353D02*
Y61353D01*
X106008Y89092D02*
X107008D01*
X106508Y88592D02*
Y89592D01*
X155020Y187904D02*
X156020D01*
X155520Y187404D02*
Y188404D01*
X143920Y91065D02*
X144920D01*
X144420Y90565D02*
Y91565D01*
X91120Y120204D02*
X92120D01*
X91620Y119704D02*
Y120704D01*
X96920Y49004D02*
X97920D01*
X97420Y48504D02*
Y49504D01*
X167358Y69842D02*
X168358D01*
X167858Y69342D02*
Y70342D01*
X104120Y46404D02*
X105120D01*
X104620Y45904D02*
Y46904D01*
X134209Y26793D02*
X135209D01*
X134709Y26293D02*
Y27293D01*
X158484Y69304D02*
X159484D01*
X158984Y68804D02*
Y69804D01*
X108620Y91704D02*
X109620D01*
X109120Y91204D02*
Y92204D01*
X121920Y187904D02*
X122920D01*
X122420Y187404D02*
Y188404D01*
X185355Y172804D02*
X186355D01*
X185855Y172304D02*
Y173304D01*
X154547Y64673D02*
X155547D01*
X155047Y64173D02*
Y65173D01*
X128220Y64504D02*
X129220D01*
X128720Y64004D02*
Y65004D01*
X171920Y68704D02*
X172920D01*
X172420Y68204D02*
Y69204D01*
X287681Y104204D02*
X288681D01*
X288181Y103704D02*
Y104704D01*
X216520Y76492D02*
X217520D01*
X217020Y75992D02*
Y76992D01*
X56520Y66904D02*
X57720D01*
X57120Y66304D02*
Y67504D01*
X137620Y110704D02*
X138620D01*
X138120Y110204D02*
Y111204D01*
X268020Y87604D02*
X269020D01*
X268520Y87104D02*
Y88104D01*
X277241Y78382D02*
X278241D01*
X277741Y77882D02*
Y78882D01*
X129726Y90803D02*
X130726D01*
X130226Y90303D02*
Y91303D01*
X76839Y115504D02*
X77839D01*
X77339Y115004D02*
Y116004D01*
X213720Y156904D02*
X214720D01*
X214220Y156404D02*
Y157404D01*
X190820Y156904D02*
X191820D01*
X191320Y156404D02*
Y157404D01*
X190820Y172704D02*
X191820D01*
X191320Y172204D02*
Y173204D01*
X219820Y161119D02*
X220820D01*
X220320Y160619D02*
Y161619D01*
X85953Y180370D02*
X87153D01*
X86553Y179770D02*
Y180970D01*
X124720Y172704D02*
X125720D01*
X125220Y172204D02*
Y173204D01*
X117173Y170104D02*
X118173D01*
X117673Y169604D02*
Y170604D01*
X127481Y187965D02*
X128481D01*
X127981Y187465D02*
Y188465D01*
X165320Y188304D02*
X166320D01*
X165820Y187804D02*
Y188804D01*
X143420Y187904D02*
X144420D01*
X143920Y187404D02*
Y188404D01*
X92920Y42704D02*
X93920D01*
X93420Y42204D02*
Y43204D01*
X104089Y42704D02*
X105089D01*
X104589Y42204D02*
Y43204D01*
X53579Y15067D02*
X54579D01*
X54079Y14567D02*
Y15567D01*
X51020Y23778D02*
X52020D01*
X51520Y23278D02*
Y24278D01*
X48461Y15067D02*
X49461D01*
X48961Y14567D02*
Y15567D01*
M02*
